
        <svg xmlns="http://www.w3.org/2000/svg" xmlns:xlink="http://www.w3.org/1999/xlink" version="1.1" width="3141.532670887112" height="806.7362240565394" viewBox="0 0 3141.532670887112 806.7362240565394">
			
			<g transform="scale(7.076633544355609) translate(10, 10)">
				<defs id="SvgjsDefs2244"/><g id="SvgjsG2245" featureKey="hmhgWD-0" transform="matrix(0.12820512820512822,0,0,0.12820512820512822,0.12820512820512822,2.128205128205128)" fill="#000"><g xmlns="http://www.w3.org/2000/svg"><title>background</title><rect x="-1" y="-1" width="702" height="702" style="fill: none;"/></g><g xmlns="http://www.w3.org/2000/svg"><title>Layer 1</title><g><g><path d="M222,158.3c-31,0.7-57.5,21-79.5,60.8c-23.1,44.8-34.5,94.6-34.3,149.4c0.4,6.6,1.1,7.2,2.2,1.9     c9.3-40.3,19-71.8,29.1-94.6c9.9-22.9,20.9-41.7,32.9-56.2c27.6-32.1,51.5-37.3,71.8-15.6c22.2,25.6,34,68.8,35.4,129.4     c-1.2,81.5-11.9,143.1-32.1,185c-25.3,51-51.3,68-77.7,50.8c-36-28.7-56-92.3-60-190.6c-1.4-3.4-2.7-0.9-3.7,7.5     c-1.9,10.2-3.2,21.4-4,33.3c-3,53.4,4.1,98.7,21.2,135.9c17.5,35.3,40.8,53.2,69.9,53.8c31.4-0.5,60-21,85.9-61.7     c25.8-42.5,42.4-94.3,49.7-155.6c2.7-65.2-6.1-120.7-26.3-166.5c-20.4-43.6-47.1-66-80-67.2"/></g><g><path d="M452,134.1c-16.1-26.4-46.9-39.3-92.4-38.5c-50.3,2.4-99.2,17.4-146.6,45c-5.5,3.6-5.7,4.6-0.6,2.9     c39.6-12.1,71.7-19.5,96.4-22.1c24.8-2.9,46.5-2.8,65.1,0.4c41.6,7.9,58.1,26,49.4,54.4c-11.1,32-42.6,63.8-94.4,95.4     c-71.2,39.7-129.9,61.3-176.2,64.7c-56.9,3.6-84.5-10.4-82.8-41.9C77,248.8,122,199.7,205.1,147c2.2-2.9-0.6-2.7-8.3,0.6     c-9.8,3.5-20.1,7.9-30.9,13.2c-47.7,24.1-83.5,52.9-107.1,86.3c-21.8,32.8-25.7,62-11.7,87.4c16.1,26.9,48.2,41.4,96.4,43.5     c49.7,1.1,102.9-10.4,159.6-34.8c57.8-30.3,101.5-65.6,131-106c27.6-39.5,33.6-73.8,18.2-102.9"/></g><g><path d="M588,321.2c14.8-27.2,10.6-60.3-12.9-99.3c-27.3-42.4-64.7-77.2-112.3-104.4c-5.9-3-6.8-2.7-2.8,0.9     c30.3,28.2,52.7,52.4,67.4,72.4c14.9,20.1,25.7,38.9,32.2,56.6c14,40,6.5,63.3-22.4,69.9c-33.3,6.4-76.5-5-129.8-34     c-69.9-41.8-118-81.9-144.2-120.2c-31.5-47.5-33.2-78.4-5.1-92.7c42.9-16.8,107.9-2.3,195.1,43.4c3.6,0.4,2.1-1.9-4.7-6.9     c-7.9-6.8-16.9-13.5-26.9-20.2c-44.7-29.3-87.5-45.8-128.3-49.6c-39.3-2.5-66.5,8.7-81.6,33.6c-15.3,27.4-11.8,62.5,10.5,105.2     c23.9,43.6,60.5,83.9,109.9,120.8c55.1,34.9,107.6,55.1,157.3,60.4c48,4.1,80.8-7.8,98.2-35.7"/></g><g><path d="M494,532.5c31-0.7,57.5-21,79.5-60.8c23.1-44.8,34.5-94.6,34.3-149.4c-0.4-6.6-1.1-7.2-2.2-1.9     c-9.3,40.3-19,71.8-29.1,94.6c-9.9,22.9-20.9,41.7-32.9,56.2c-27.6,32.1-51.5,37.3-71.8,15.6c-22.2-25.6-34-68.8-35.4-129.4     c1.2-81.5,11.9-143.1,32.1-185c25.3-51,51.3-68,77.7-50.8c36,28.7,56,92.3,60,190.6c1.4,3.4,2.7,0.9,3.7-7.5     c1.9-10.2,3.2-21.4,4-33.3c3-53.4-4.1-98.7-21.2-135.9c-17.5-35.3-40.8-53.2-69.9-53.8c-31.4,0.5-60,21-85.9,61.7     c-25.8,42.5-42.4,94.3-49.7,155.6c-2.7,65.2,6.1,120.7,26.3,166.5c20.4,43.6,47.1,66,80,67.2"/></g><g><path d="M128,369.6c-14.8,27.2-10.6,60.3,12.9,99.3c27.3,42.4,64.7,77.2,112.3,104.4c5.9,3,6.8,2.7,2.8-0.9     c-30.3-28.2-52.7-52.4-67.4-72.4c-14.9-20.1-25.7-38.9-32.2-56.6c-14-40-6.5-63.3,22.4-69.9c33.3-6.4,76.5,5,129.8,34     c69.9,41.8,118,81.9,144.2,120.2c31.5,47.5,33.2,78.4,5.1,92.7c-42.9,16.8-107.9,2.3-195.1-43.4c-3.6-0.4-2.1,1.9,4.7,6.9     c7.9,6.8,16.9,13.5,26.9,20.2c44.7,29.3,87.5,45.8,128.3,49.6c39.3,2.5,66.5-8.7,81.6-33.6c15.3-27.4,11.8-62.5-10.5-105.2     c-23.9-43.6-60.5-83.9-109.9-120.8c-55.1-34.9-107.6-55.1-157.3-60.4c-48-4.1-80.8,7.8-98.2,35.7"/></g><g><path d="M264,556.7c16.1,26.4,46.9,39.3,92.4,38.5c50.3-2.4,99.2-17.4,146.6-45c5.5-3.6,5.7-4.6,0.6-2.9     c-39.6,12.1-71.7,19.5-96.4,22.1c-24.8,2.9-46.5,2.8-65.1-0.4c-41.6-7.9-58.1-26-49.4-54.4c11.1-32,42.6-63.8,94.4-95.4     c71.2-39.7,129.9-61.3,176.2-64.7c56.9-3.6,84.5,10.4,82.8,41.9c-6.9,45.5-51.9,94.6-135.1,147.3c-2.2,2.9,0.6,2.7,8.3-0.6     c9.8-3.5,20.1-7.9,30.9-13.2c47.7-24.1,83.5-52.9,107.1-86.3c21.8-32.8,25.7-62,11.7-87.4c-16.1-26.9-48.2-41.4-96.3-43.5     c-49.7-1.1-102.9,10.4-159.6,34.8c-57.8,30.3-101.5,65.6-131,106c-27.6,39.5-33.6,73.8-18.2,102.9"/></g></g></g></g><g id="SvgjsG2246" featureKey="sloganFeature-0" transform="matrix(1.1568123790362765,0,0,1.1568123790362765,109.8843187689915,70.493577223903)" fill="#000"><path d="M0.74 20.08 c-0.22 0 -0.22 0.02 -0.36 0.02 c-0.04 0 -0.22 -0.16 -0.28 -0.22 c0 0 0.04 -0.3 0.04 -0.36 c0.72 -0.06 1.24 -0.08 1.8 -0.14 c0.06 0 0 -0.38 0.22 -0.38 l0 -0.32 c0.02 0.02 0.04 0.02 0.04 0.02 c0.12 0 0.1 -0.56 0.26 -0.6 c0 -0.04 0.08 -0.72 0.28 -0.88 l0.1 -0.38 s0.68 -2.32 0.94 -2.32 c0.02 0 0.06 0.02 0.08 0.02 c0.1 0 0.12 -0.04 0.12 -0.08 c0 -0.18 -0.16 -0.1 -0.16 -0.24 c0 -0.36 0.36 -1.04 0.4 -1.08 c0.02 -0.82 0.32 -0.62 0.32 -1.14 l0 0.02 c0.02 0 0.18 -0.5 0.26 -0.56 c0 0.04 0.02 0.04 0.02 0.04 s-0.02 0 -0.02 -0.02 c0 -0.12 0.4 -0.94 0.4 -1.16 c0.1 0 0.12 -0.02 0.12 -0.06 s-0.02 -0.08 -0.02 -0.14 c0 -0.12 0.04 -0.24 0.18 -0.4 l0 0.02 c0.04 0 0.02 -0.44 0.18 -0.44 l0.08 -0.38 l0.12 -0.1 l0 -0.32 l0.16 -0.12 l0 -0.34 s0.12 -0.04 0.12 -0.08 c-0.02 0 -0.04 -0.04 -0.04 -0.06 c0 -0.26 0.5 -1.02 0.5 -1.54 l0.1 -0.08 l0 -0.32 c0 0.02 0.02 0.02 0.02 0.02 c0.28 0 -0.1 -1.16 0.94 -1.16 c0.08 0 0.44 0.22 0.44 0.52 c0.08 0.08 -0.08 0.28 0.28 0.94 c0.02 0 0.5 1.3 0.5 1.64 c0.18 0 0.06 0.4 0.52 1.36 c0.12 0.54 0.34 0.52 0.34 0.76 l0 -0.02 s0.1 0.64 0.18 0.64 l-0.02 0 c0 0.08 0.48 0.6 0.48 1.22 c0.12 0.58 0.32 0.34 0.32 0.84 l-0.02 -0.02 c0 0.04 0.32 0.46 0.32 0.72 c-0.02 0 -0.04 0 -0.04 0.02 c0 0.08 0.22 0.36 0.22 0.46 c0 0.02 -0.02 0.02 -0.02 0.04 c0 0.04 0.2 0.2 0.2 0.56 c0.08 0.7 0.42 0.74 0.42 1.18 c-0.02 0.04 -0.04 0.06 -0.04 0.08 c0 0.1 0.32 0.1 0.32 0.56 c0 1.14 0.78 1.4 0.78 2.2 c0.08 0.64 0.46 0.86 0.52 0.9 l1.3 0 c0.08 0 0.2 0.06 0.26 0.1 l0 0.36 c-0.08 0.04 -0.14 0.12 -0.46 0.12 c-0.04 0 -1 -0.04 -1.4 -0.04 c-0.18 0 -0.34 0.04 -0.5 0.04 c-0.02 0 -0.34 -0.04 -0.38 -0.04 c-1.08 0 -1.76 0.06 -2.18 0.06 c-0.02 0 -0.02 -0.06 -0.34 -0.06 c-0.16 0 -0.2 0 -0.28 0.04 c-0.1 0 -0.18 -0.04 -0.22 -0.1 c-0.04 0 -0.12 0.02 -0.12 0.02 l0.04 0.04 l-0.04 0.04 c-0.66 0 -0.72 0 -0.86 -0.12 l0.04 -0.34 c0 -0.04 0.14 -0.12 0.22 -0.12 l1.5 0 c0.02 0.02 0.16 -0.1 0.16 -0.2 c0 -0.04 -0.32 -0.46 -0.32 -0.7 c0.04 -0.02 0.04 -0.02 0.04 -0.06 c0 -0.1 -0.34 -0.36 -0.34 -0.88 c0.02 0 0.02 0 0.02 -0.02 c0 -0.04 -0.22 -0.2 -0.22 -0.36 c0 -0.72 -0.32 -0.72 -0.32 -1.26 l0 0.02 c-0.04 0 -0.22 -0.5 -0.4 -0.5 c-1.34 0 -2.76 0.04 -4.38 0.04 c0 0.08 -0.16 0.12 -0.16 0.34 c-0.3 0.66 -0.34 0.56 -0.34 0.88 c-0.24 0.16 0.02 0.28 -0.26 0.62 c-0.16 1.1 -0.38 0.48 -0.38 1.22 l0 -0.02 c-0.04 0 -0.22 0.52 -0.24 0.52 c0 0.32 0.08 0.32 0.2 0.4 l1.6 0 c0.1 0 0.3 0.02 0.3 0.26 s-0.06 0.36 -0.42 0.36 c-0.06 0 -0.14 -0.04 -0.24 -0.04 c-0.22 0 -0.3 0.04 -0.4 0.04 c-0.04 0 -0.14 -0.04 -0.16 -0.04 l-1.42 0 c-0.04 0.04 -0.08 0.04 -0.12 0.04 c-0.06 0 -0.16 -0.02 -0.24 -0.08 c0 0 0.04 -0.04 0.04 -0.08 l-0.06 0 c-0.04 0 -0.06 0 -0.06 0.04 l0.02 0.04 c-0.02 0.08 -0.04 0.08 -0.16 0.08 c0 -0.26 0 -0.2 0.06 -0.28 c-0.02 -0.08 0.02 -0.18 -0.04 -0.22 c0 0.14 -0.06 0.24 -0.18 0.32 c0 0.04 0.06 0.08 0.1 0.1 c-0.08 0 -0.3 0.1 -0.34 0.16 c-0.36 0 -0.32 -0.08 -0.54 -0.08 z M0.58 19.92 l0 0.04 l0.1 0 c-0.06 -0.04 -0.08 -0.04 -0.1 -0.04 z M0.92 19.96 c0 -0.02 -0.02 -0.02 -0.04 -0.02 s-0.04 0 -0.04 0.02 s0.02 0.04 0.04 0.04 s0.04 -0.02 0.04 -0.04 z M1.04 19.92 c-0.02 0 -0.04 0.02 -0.04 0.04 s0.02 0.04 0.04 0.04 s0.02 -0.02 0.02 -0.04 s0 -0.04 -0.02 -0.04 z M1.48 19.88 c-0.12 0 -0.28 0.04 -0.32 0.08 c0.34 0 0.24 -0.02 0.32 -0.08 z M2.14 19.9 c0 0.02 0.16 0.04 0.18 0.06 l0.04 -0.04 c-0.1 -0.02 -0.2 -0.02 -0.22 -0.02 z M3.62 19.92 c0.26 0 0.66 0.04 0.76 0.04 c-0.22 0 -0.22 -0.22 -0.24 -0.32 c0.02 0 -0.16 0.04 -0.16 0.16 c-0.04 0 -0.02 -0.12 -0.18 -0.12 c0 0.14 -0.08 0.18 -0.18 0.24 z M4.54 19.92 l0.04 0.04 c0.02 0 0.14 -0.04 0.18 -0.04 l-0.22 0 z M1.78 19.9 c-0.02 0 -0.04 0.02 -0.04 0.04 c0 0 0.02 0.02 0.04 0.02 s0.02 -0.02 0.02 -0.02 c0 -0.02 0 -0.04 -0.02 -0.04 z M3.36 19.92 c0 0 -0.04 -0.02 -0.06 -0.02 c-0.04 0 -0.04 0.02 -0.04 0.02 c0 0.02 0 0.04 0.04 0.04 c0.02 0 0.06 -0.02 0.06 -0.04 z M8.28 19.88 c0.02 0.02 0.08 0.04 0.1 0.04 s0.12 -0.02 0.16 -0.04 l0 -0.24 s-0.04 -0.02 -0.06 -0.02 c-0.18 0 -0.2 0.04 -0.2 0.12 l0 0.14 z M13.7 19.9 c0.06 0 0.08 0.02 0.18 0.02 c0.02 0 0.12 -0.02 0.18 -0.02 l-0.36 0 z M14.66 19.9 l0 0.02 l0.02 -0.02 l-0.02 0 z M8.84 19.88 l-0.04 0.02 l0.06 0.02 z M10.34 19.88 c-0.02 0 -0.04 0.02 -0.04 0.02 s0.02 0.02 0.04 0.02 s0.02 -0.02 0.02 -0.02 s0 -0.02 -0.02 -0.02 z M13.08 19.88 c0.02 0.02 0.04 0.02 0.1 0.02 l0.38 0 c-0.02 -0.02 -0.06 -0.04 -0.1 -0.06 c-0.04 0.04 -0.1 0.04 -0.12 0.04 c-0.18 0 -0.14 -0.14 -0.18 -0.14 z M0.26 19.74 c0 0.12 0 0.1 0.04 0.14 l0.26 0 l0 -0.34 c-0.28 0.14 -0.3 0.08 -0.3 0.2 z M4.48 19.78 l0 0.1 c0.04 0 0.06 -0.04 0.06 -0.04 c-0.02 -0.12 -0.08 -0.12 -0.08 -0.22 c-0.08 0 -0.12 0.04 -0.12 0.06 c0.02 0.04 0.04 0.1 0.14 0.1 z M14.26 19.84 c-0.02 0 -0.02 0.02 -0.02 0.04 s0 0.02 0.02 0.02 s0.02 0 0.02 -0.02 s0 -0.04 -0.02 -0.04 z M0.8 19.62 c0 0.16 -0.02 0.2 -0.06 0.22 c0.12 0 0.22 0 0.22 -0.12 s-0.02 -0.1 -0.16 -0.1 z M2.92 19.8 l0 0.04 l0.04 0 z M3.28 19.72 l0.04 0.02 l0 -0.06 z M4.58 19.58 c0 0.02 0 0.06 0.02 0.06 c0 0 0.08 0 0.08 -0.06 c0 -0.04 -0.04 -0.04 -0.08 -0.06 c-0.02 0.02 -0.02 0.04 -0.02 0.06 z M13.72 19.62 c0 0.02 0.04 0.02 0.06 0.02 c0 -0.1 0 -0.1 -0.04 -0.12 c0 0 -0.02 0.06 -0.02 0.1 z M14.6 19.48 c-0.1 0.02 -0.08 0.06 -0.08 0.16 l0.16 -0.1 c0 -0.02 -0.06 -0.04 -0.08 -0.06 z M13.08 19.54 c-0.02 0 -0.04 0.02 -0.04 0.02 c0 0.02 0.02 0.02 0.04 0.02 s0.02 0 0.02 -0.02 c0 0 0 -0.02 -0.02 -0.02 z M2.1 19.48 l0 0.06 l0.04 -0.06 l-0.04 0 z M2.16 19.18 c0 0.02 0.02 0.3 0.2 0.3 c-0.04 -0.02 -0.1 -0.2 -0.1 -0.3 l0.04 -0.12 l-0.04 -0.04 c-0.08 0 -0.1 0.12 -0.1 0.16 z M2.9 18.24 c-0.06 0.04 -0.14 0.16 -0.14 0.32 c0.02 0.02 0.04 0.02 0.04 0.02 c0.08 0 0.1 -0.12 0.12 -0.18 c0 -0.02 -0.02 -0.18 -0.02 -0.16 z M2.8 17.72 c0 -0.02 -0.02 -0.02 -0.02 -0.02 c-0.02 0 -0.02 0 -0.02 0.02 s0 0.02 0.02 0.02 c0 0 0.02 0 0.02 -0.02 z M3.36 16.28 c-0.02 0 -0.04 0.02 -0.04 0.02 s0.02 0.02 0.04 0.02 l0.02 -0.02 z M9.04 16 c-0.02 0 -0.02 0.02 -0.02 0.04 s0 0.04 0.02 0.04 s0.02 -0.02 0.02 -0.04 s0 -0.04 -0.02 -0.04 z M3.54 15.84 c-0.02 0 -0.02 0.02 -0.02 0.04 s0 0.04 0.02 0.04 s0.02 -0.02 0.02 -0.04 s0 -0.04 -0.02 -0.04 z M3.54 15.42 c-0.02 0 -0.02 0.02 -0.02 0.02 c0 0.02 0 0.02 0.02 0.02 s0.02 0 0.02 -0.02 c0 0 0 -0.02 -0.02 -0.02 z M4.46 14.6 c0.06 0.24 0.08 0.26 0.22 0.34 c0.24 0 0.9 -0.04 2.72 -0.04 c0.16 0 0.24 0.06 0.64 0.06 c0.2 0 0.4 -0.06 0.4 -0.28 c0 -0.1 -0.26 -0.48 -0.26 -0.68 l0.02 0 c0 -0.04 -0.22 -0.22 -0.22 -0.44 c0 -0.74 -0.38 -0.66 -0.38 -1.12 c0.02 0.02 0.02 0.04 0.02 0.04 c-0.02 0 -0.38 -0.66 -0.38 -1.04 c0 -0.26 -0.36 -0.64 -0.36 -1.08 l0.02 0 c0 -0.04 -0.22 -0.24 -0.22 -0.48 c-0.18 -0.42 -0.2 -0.38 -0.36 -0.38 c-0.58 1.38 -0.54 1.4 -0.72 1.74 c0 -0.04 -0.02 0.64 -0.28 0.74 l0 -0.04 c-0.02 0 -0.22 1.14 -0.42 1.32 c0 0.26 -0.44 0.6 -0.44 1.34 z M4.06 14.04 c-0.02 0 -0.04 0.02 -0.04 0.04 s0.02 0.04 0.04 0.04 s0.02 -0.02 0.02 -0.04 s0 -0.04 -0.02 -0.04 z M4.52 12.719999999999999 c-0.02 0 -0.04 0.02 -0.04 0.04 c0 0 0.02 0.02 0.04 0.02 l0 -0.06 z M5.36 11.54 l0 0.02 l0.02 0 z M5.28 11.22 c-0.02 0 -0.04 0.02 -0.04 0.04 l0.04 0 l0.02 0 c0 -0.02 0 -0.04 -0.02 -0.04 z M5.36 10.7 c-0.02 0 -0.04 0.02 -0.04 0.02 c0 0.02 0.02 0.04 0.04 0.04 c0 0 0.02 -0.02 0.02 -0.04 z M5.9 9.34 c0 -0.02 -0.02 -0.02 -0.02 -0.02 c-0.02 0 -0.02 0 -0.02 0.02 s0 0.04 0.02 0.04 c0 0 0.02 -0.02 0.02 -0.04 z M5.96 9.28 l-0.02 0 c0 0.02 0.02 0.02 0.02 0.02 s0.02 0 0.02 -0.02 l-0.02 0 z M8.14 7.880000000000001 c-0.02 0 -0.02 0.02 -0.02 0.04 s0 0.04 0.02 0.04 s0.02 -0.02 0.02 -0.04 s0 -0.04 -0.02 -0.04 z M7.76 5.1 c0 0 -0.02 0.02 -0.02 0.04 l0.04 0 c0 -0.02 0 -0.04 -0.02 -0.04 z M7.24 5.0600000000000005 c-0.02 0 -0.02 0.02 -0.02 0.04 s0 0.04 0.02 0.04 s0.02 -0.02 0.02 -0.04 s0 -0.04 -0.02 -0.04 z M7.4 5.0600000000000005 l0.08 0.04 c0.16 0 0.1 0 0.16 -0.04 l-0.06 -0.08 c-0.08 0 -0.12 0.08 -0.18 0.08 z M15.299999999999999 19.68 c0 -0.26 0.1 -0.14 0.22 -0.22 c0.14 0 0.38 0.02 0.64 0.02 c0.52 0 1.14 -0.06 1.2 -0.44 c0 -0.38 -0.06 -0.34 -0.06 -0.84 c0 -0.18 0.02 -1.7 0.02 -1.9 c0 -0.26 -0.02 -0.72 -0.02 -1.22 l0 -6.48 c0 -0.02 0.02 -0.2 0.02 -0.22 s-0.02 -0.06 -0.02 -0.28 l0 -2.08 c-0.04 -0.12 -0.04 -0.42 -0.16 -0.42 c-0.54 0 -1.4 0.06 -1.48 0.06 c-0.16 0 -0.38 -0.04 -0.38 -0.28 c0 -0.46 0.22 -0.44 0.28 -0.5 l1.16 0.02 s0.36 0.02 0.48 0.02 c0.06 0 0.18 -0.02 0.4 -0.02 l1.86 0 c0.04 0 0.14 -0.04 0.18 -0.04 s0.14 0.04 0.24 0.04 l3.14 -0.02 c0.18 0.02 0.66 0.16 1.2 0.16 c-0.02 0 -0.02 -0.02 -0.02 -0.02 c0.04 0 0.38 0.22 0.74 0.22 c0.06 0 0.78 0.02 0.78 0.3 c0 -0.02 0 -0.04 0.06 -0.04 c0.1 0 0.4 0.1 1.18 0.6 l0 0.04 c0.04 0.16 0.64 0.38 0.88 0.72 c0.02 0.24 0.7 0.72 0.7 0.88 c-0.02 0.02 -0.02 0.02 -0.02 0.04 l0 -0.02 c0.06 0 0.5 0.78 0.76 1.56 c-0.02 0 -0.02 0.02 -0.02 0.02 c0 0.12 0.46 0.74 0.46 1.68 c0.06 0.32 0.12 1.68 0.12 1.9 c0 0.14 -0.08 0.48 -0.08 0.74 c0 0 -0.16 0.76 -0.16 0.84 l-0.02 -0.02 c-0.06 0 0 0.74 -0.24 0.98 c-0.1 0 0.08 0.44 -0.32 0.84 c-0.06 0.04 -0.16 0.16 -0.16 0.42 c-0.72 1.24 -0.72 0.76 -0.98 1.3 c0 0.14 -0.16 0.12 -0.28 0.2 c-0.32 0.54 -0.88 0.76 -1.76 1.2 c-0.3 0 -0.84 0.38 -1.34 0.42 c0 0.02 -2.22 0.16 -3.24 0.16 c-0.24 0 -0.5 -0.02 -0.74 -0.02 c-0.12 0 -2.58 0.02 -3.5 0.04 c-0.08 0 -0.3 -0.02 -0.62 -0.02 c-0.34 0 -0.38 0.1 -0.76 0.1 c-0.18 -0.02 -0.34 -0.12 -0.34 -0.42 z M15.52 19.9 c0.1 0.04 0.16 0.04 0.2 0.04 c0.12 0 0.1 0 0.12 -0.04 l-0.32 0 z M16.4 19.94 c0 -0.02 -0.02 -0.02 -0.02 -0.02 c-0.02 0 -0.02 0 -0.02 0.02 s0 0.04 0.02 0.04 c0 0 0.02 -0.02 0.02 -0.04 z M16.66 19.9 c-0.02 0 -0.04 0.02 -0.04 0.04 s0.02 0.04 0.04 0.04 s0.02 -0.02 0.02 -0.04 s0 -0.04 -0.02 -0.04 z M21.88 19.86 c-0.02 0 -0.04 0.02 -0.04 0.04 s0.02 0.04 0.04 0.04 s0.02 -0.02 0.02 -0.04 s0 -0.04 -0.02 -0.04 z M22.2 19.9 c0 -0.02 -0.02 -0.02 -0.02 -0.02 c-0.02 0 -0.02 0 -0.02 0.02 s0 0.04 0.02 0.04 c0 0 0.02 -0.02 0.02 -0.04 z M15.879999999999999 19.62 c-0.06 0.02 -0.06 0.08 -0.06 0.12 c0.04 -0.02 0.06 -0.08 0.06 -0.12 z M15.5 19.58 c0 0.06 0.02 0.06 0.1 0.1 l-0.02 0.02 c0.04 0 0.16 -0.08 0.14 -0.14 c-0.06 0 -0.22 0 -0.22 0.02 l0 0 z M15.82 19.58 c-0.02 0 -0.02 0.02 -0.02 0.04 s0 0.02 0.02 0.02 l0 -0.06 z M20.259999999999998 18.64 c0.06 0.46 0.04 0.78 0.26 0.78 l1.36 0 c0.04 0 0.08 -0.02 0.12 -0.02 c0 0 0.14 0.02 0.26 0.02 c0.3 0 0.74 -0.02 0.9 -0.1 c-0.16 -0.12 0.18 0.16 0.6 -0.16 c0.94 -0.06 0.58 -0.2 0.94 -0.38 c0.06 0 0.48 -0.24 0.56 -0.42 c0 -0.16 0.32 -0.24 0.34 -0.32 c-0.02 -0.02 -0.04 -0.04 -0.04 -0.06 c0 -0.12 0.34 -0.2 0.34 -0.52 c-0.02 -0.02 -0.02 -0.02 -0.02 -0.04 c0 -0.08 0.2 -0.14 0.2 -0.5 l0 0.02 c0.06 0 0.46 -1.64 0.46 -2.48 c0 -0.02 -0.02 -0.32 -0.02 -0.64 s0.02 -0.64 0.1 -0.7 c0 -0.04 -0.04 -0.24 -0.04 -0.28 c0 0 0.04 -0.4 0.04 -0.44 c0 -5.4 -1.38 -5.74 -1.92 -6.3 c-0.4 0 -0.48 -0.36 -1.06 -0.36 c-1.08 -0.06 -1.6 -0.14 -3.14 -0.14 c-0.3 0.76 -0.04 1.54 -0.26 1.96 c0 0.04 0.06 0.14 0.06 0.62 c0 0.24 0 0.22 -0.04 0.3 l0 1.06 c0 0.02 0.04 0.16 0.04 0.2 c-0.02 0.02 -0.04 0.08 -0.04 0.08 c0 0.04 0.04 0.28 0.04 0.44 l-0.04 0.04 c0 0.02 0.04 0.2 0.04 0.26 l0 2.32 c0 0.04 0.02 0.2 0.02 0.24 c0 0.32 -0.06 1.24 -0.06 1.92 c0 0.16 0.04 0.3 0.04 0.36 c0 0.2 -0.04 0.44 -0.04 0.64 c0 0.26 0.02 0.78 0.06 0.78 c0 0.02 -0.02 0.34 -0.02 0.38 c0 0.02 -0.02 0.02 -0.02 0.04 s0.04 0.08 0.04 0.2 c0 0.04 0 0.24 -0.06 1.2 z M17.48 18.56 c-0.02 0 -0.02 0 -0.02 0.02 s0 0.04 0.02 0.04 s0.02 -0.02 0.02 -0.04 s0 -0.02 -0.02 -0.02 z M26.939999999999998 15.440000000000001 l0 0.02 l0.02 0 z M19.6 9.7 l-0.04 0.04 l0.04 0 l0 -0.04 z M17.48 8.06 c-0.04 0.08 -0.02 0.24 -0.02 0.32 z M17.56 7.960000000000001 c-0.02 0 -0.04 0.02 -0.04 0.04 c0 0 0.02 0.02 0.04 0.02 s0.02 -0.02 0.02 -0.02 c0 -0.02 0 -0.04 -0.02 -0.04 z M26.66 6.76 l-0.02 -0.02 c-0.02 0 -0.02 0.02 -0.02 0.02 c0 0.02 0 0.04 0.02 0.04 c0 0 0.02 -0.02 0.02 -0.04 z M26.799999999999997 6.76 c0 0 -0.02 -0.02 -0.04 -0.02 l-0.02 0.02 c0 0.02 0.02 0.04 0.02 0.04 c0.02 0 0.04 -0.02 0.04 -0.04 z M23.72 5.279999999999999 c0 0.08 0.04 0.1 0.06 0.1 s0.02 -0.02 0.02 -0.02 c0 -0.06 -0.08 -0.12 -0.16 -0.12 c-0.04 0.02 -0.16 -0.02 -0.2 0.04 l0.28 0 z M16.5 5.24 c-0.02 0 -0.04 0.02 -0.04 0.04 s0.02 0.04 0.04 0.04 s0.02 -0.02 0.02 -0.04 s0 -0.04 -0.02 -0.04 z M20.66 5.24 c-0.06 0 -0.06 0.02 -0.08 0.04 l0.08 -0.04 l0 0 z M22.84 5.24 l-0.22 0 l0 0.04 c0.1 0 0.28 0.02 0.32 -0.04 l-0.1 0 z M23.1 5.24 c0 -0.02 -0.02 -0.02 -0.02 -0.02 c-0.02 0 -0.02 0 -0.02 0.02 l0.04 0 z M30.4 19.68 c0 -0.26 0.1 -0.14 0.22 -0.22 c0.14 0 0.38 0.02 0.64 0.02 c0.52 0 1.14 -0.06 1.2 -0.44 c0 -0.38 -0.06 -0.34 -0.06 -0.84 c0 -0.18 0.02 -1.7 0.02 -1.9 c0 -0.26 -0.02 -0.72 -0.02 -1.22 l0 -6.48 c0 -0.02 0.02 -0.2 0.02 -0.22 s-0.02 -0.06 -0.02 -0.28 l0 -2.08 c-0.04 -0.12 -0.04 -0.42 -0.16 -0.42 c-0.54 0 -1.4 0.06 -1.48 0.06 c-0.16 0 -0.38 -0.04 -0.38 -0.28 c0 -0.46 0.22 -0.44 0.28 -0.5 l1.16 0.02 s0.36 0.02 0.48 0.02 c0.06 0 0.18 -0.02 0.4 -0.02 l1.86 0 c0.04 0 0.14 -0.04 0.18 -0.04 s0.14 0.04 0.24 0.04 l3.14 -0.02 c0.18 0.02 0.66 0.16 1.2 0.16 c-0.02 0 -0.02 -0.02 -0.02 -0.02 c0.04 0 0.38 0.22 0.74 0.22 c0.06 0 0.78 0.02 0.78 0.3 c0 -0.02 0 -0.04 0.06 -0.04 c0.1 0 0.4 0.1 1.18 0.6 l0 0.04 c0.04 0.16 0.64 0.38 0.88 0.72 c0.02 0.24 0.7 0.72 0.7 0.88 c-0.02 0.02 -0.02 0.02 -0.02 0.04 l0 -0.02 c0.06 0 0.5 0.78 0.76 1.56 c-0.02 0 -0.02 0.02 -0.02 0.02 c0 0.12 0.46 0.74 0.46 1.68 c0.06 0.32 0.12 1.68 0.12 1.9 c0 0.14 -0.08 0.48 -0.08 0.74 c0 0 -0.16 0.76 -0.16 0.84 l-0.02 -0.02 c-0.06 0 0 0.74 -0.24 0.98 c-0.1 0 0.08 0.44 -0.32 0.84 c-0.06 0.04 -0.16 0.16 -0.16 0.42 c-0.72 1.24 -0.72 0.76 -0.98 1.3 c0 0.14 -0.16 0.12 -0.28 0.2 c-0.32 0.54 -0.88 0.76 -1.76 1.2 c-0.3 0 -0.84 0.38 -1.34 0.42 c0 0.02 -2.22 0.16 -3.24 0.16 c-0.24 0 -0.5 -0.02 -0.74 -0.02 c-0.12 0 -2.58 0.02 -3.5 0.04 c-0.08 0 -0.3 -0.02 -0.62 -0.02 c-0.34 0 -0.38 0.1 -0.76 0.1 c-0.18 -0.02 -0.34 -0.12 -0.34 -0.42 z M30.619999999999997 19.9 c0.1 0.04 0.16 0.04 0.2 0.04 c0.12 0 0.1 0 0.12 -0.04 l-0.32 0 z M31.499999999999996 19.94 c0 -0.02 -0.02 -0.02 -0.02 -0.02 c-0.02 0 -0.02 0 -0.02 0.02 s0 0.04 0.02 0.04 c0 0 0.02 -0.02 0.02 -0.04 z M31.759999999999998 19.9 c-0.02 0 -0.04 0.02 -0.04 0.04 s0.02 0.04 0.04 0.04 s0.02 -0.02 0.02 -0.04 s0 -0.04 -0.02 -0.04 z M36.98 19.86 c-0.02 0 -0.04 0.02 -0.04 0.04 s0.02 0.04 0.04 0.04 s0.02 -0.02 0.02 -0.04 s0 -0.04 -0.02 -0.04 z M37.3 19.9 c0 -0.02 -0.02 -0.02 -0.02 -0.02 c-0.02 0 -0.02 0 -0.02 0.02 s0 0.04 0.02 0.04 c0 0 0.02 -0.02 0.02 -0.04 z M30.979999999999997 19.62 c-0.06 0.02 -0.06 0.08 -0.06 0.12 c0.04 -0.02 0.06 -0.08 0.06 -0.12 z M30.599999999999998 19.58 c0 0.06 0.02 0.06 0.1 0.1 l-0.02 0.02 c0.04 0 0.16 -0.08 0.14 -0.14 c-0.06 0 -0.22 0 -0.22 0.02 l0 0 z M30.919999999999998 19.58 c-0.02 0 -0.02 0.02 -0.02 0.04 s0 0.02 0.02 0.02 l0 -0.06 z M35.36 18.64 c0.06 0.46 0.04 0.78 0.26 0.78 l1.36 0 c0.04 0 0.08 -0.02 0.12 -0.02 c0 0 0.14 0.02 0.26 0.02 c0.3 0 0.74 -0.02 0.9 -0.1 c-0.16 -0.12 0.18 0.16 0.6 -0.16 c0.94 -0.06 0.58 -0.2 0.94 -0.38 c0.06 0 0.48 -0.24 0.56 -0.42 c0 -0.16 0.32 -0.24 0.34 -0.32 c-0.02 -0.02 -0.04 -0.04 -0.04 -0.06 c0 -0.12 0.34 -0.2 0.34 -0.52 c-0.02 -0.02 -0.02 -0.02 -0.02 -0.04 c0 -0.08 0.2 -0.14 0.2 -0.5 l0 0.02 c0.06 0 0.46 -1.64 0.46 -2.48 c0 -0.02 -0.02 -0.32 -0.02 -0.64 s0.02 -0.64 0.1 -0.7 c0 -0.04 -0.04 -0.24 -0.04 -0.28 c0 0 0.04 -0.4 0.04 -0.44 c0 -5.4 -1.38 -5.74 -1.92 -6.3 c-0.4 0 -0.48 -0.36 -1.06 -0.36 c-1.08 -0.06 -1.6 -0.14 -3.14 -0.14 c-0.3 0.76 -0.04 1.54 -0.26 1.96 c0 0.04 0.06 0.14 0.06 0.62 c0 0.24 0 0.22 -0.04 0.3 l0 1.06 c0 0.02 0.04 0.16 0.04 0.2 c-0.02 0.02 -0.04 0.08 -0.04 0.08 c0 0.04 0.04 0.28 0.04 0.44 l-0.04 0.04 c0 0.02 0.04 0.2 0.04 0.26 l0 2.32 c0 0.04 0.02 0.2 0.02 0.24 c0 0.32 -0.06 1.24 -0.06 1.92 c0 0.16 0.04 0.3 0.04 0.36 c0 0.2 -0.04 0.44 -0.04 0.64 c0 0.26 0.02 0.78 0.06 0.78 c0 0.02 -0.02 0.34 -0.02 0.38 c0 0.02 -0.02 0.02 -0.02 0.04 s0.04 0.08 0.04 0.2 c0 0.04 0 0.24 -0.06 1.2 z M32.58 18.56 c-0.02 0 -0.02 0 -0.02 0.02 s0 0.04 0.02 0.04 s0.02 -0.02 0.02 -0.04 s0 -0.02 -0.02 -0.02 z M42.04 15.440000000000001 l0 0.02 l0.02 0 z M34.699999999999996 9.7 l-0.04 0.04 l0.04 0 l0 -0.04 z M32.58 8.06 c-0.04 0.08 -0.02 0.24 -0.02 0.32 z M32.66 7.960000000000001 c-0.02 0 -0.04 0.02 -0.04 0.04 c0 0 0.02 0.02 0.04 0.02 s0.02 -0.02 0.02 -0.02 c0 -0.02 0 -0.04 -0.02 -0.04 z M41.76 6.76 l-0.02 -0.02 c-0.02 0 -0.02 0.02 -0.02 0.02 c0 0.02 0 0.04 0.02 0.04 c0 0 0.02 -0.02 0.02 -0.04 z M41.9 6.76 c0 0 -0.02 -0.02 -0.04 -0.02 l-0.02 0.02 c0 0.02 0.02 0.04 0.02 0.04 c0.02 0 0.04 -0.02 0.04 -0.04 z M38.81999999999999 5.279999999999999 c0 0.08 0.04 0.1 0.06 0.1 s0.02 -0.02 0.02 -0.02 c0 -0.06 -0.08 -0.12 -0.16 -0.12 c-0.04 0.02 -0.16 -0.02 -0.2 0.04 l0.28 0 z M31.599999999999998 5.24 c-0.02 0 -0.04 0.02 -0.04 0.04 s0.02 0.04 0.04 0.04 s0.02 -0.02 0.02 -0.04 s0 -0.04 -0.02 -0.04 z M35.76 5.24 c-0.06 0 -0.06 0.02 -0.08 0.04 l0.08 -0.04 l0 0 z M37.94 5.24 l-0.22 0 l0 0.04 c0.1 0 0.28 0.02 0.32 -0.04 l-0.1 0 z M38.199999999999996 5.24 c0 -0.02 -0.02 -0.02 -0.02 -0.02 c-0.02 0 -0.02 0 -0.02 0.02 l0.04 0 z M54.26 19.72 l0 -0.1 l0.24 -0.24 l0.98 0 l0.08 0.04 l0.46 0.04 c0.08 0.04 0.18 -0.26 0.24 -0.26 l0 -2.42 c0 -0.02 -0.04 -0.26 -0.04 -0.28 c0 0 0.04 -0.48 0.04 -0.58 c0.04 -0.06 -0.06 0.08 -0.06 -0.32 c0 -0.04 0.06 -0.08 0.06 -0.16 c0 -0.14 -0.04 -0.22 -0.04 -0.32 c0 -0.04 0.04 -0.18 0.04 -0.26 l0 -1.26 c0 -0.18 -0.06 -0.5 -0.06 -0.74 l0.02 -1.72 c-0.02 -0.08 -0.02 -0.6 -0.02 -0.7 c0 -0.06 0.02 -0.52 0.02 -0.58 c0 -0.02 -0.02 -1.04 -0.02 -1.16 c0 -1.24 0.02 -1.46 0.02 -2 c0 -0.24 0 -0.76 -0.02 -0.92 l-0.12 -0.14 s-0.4 -0.02 -0.56 -0.02 c-0.26 0 -0.46 0.06 -0.7 0.06 c-0.22 -0.04 -0.44 0.12 -0.64 -0.34 c0 -0.18 0.04 -0.4 0.22 -0.44 c4.08 0 4.5 0.04 6.12 0.04 c3.88 0 3.66 -0.04 5.28 -0.04 c0.2 0 0.42 3.66 0.42 3.84 c0 0.02 0.02 0.02 0.02 0.04 c0 0.24 -0.36 0.42 -0.48 0.42 c-0.26 0 -0.4 -0.28 -0.48 -0.6 c0.08 0 -0.86 -1.54 -0.82 -1.46 c-0.26 -0.26 -0.28 -0.3 -0.44 -0.5 c0 -0.18 -0.86 -0.58 -0.96 -0.72 c0 0.02 -0.02 0.02 -0.02 0.02 c-0.06 0 -0.12 -0.24 -0.54 -0.24 c-0.56 0 -0.52 -0.08 -1.38 -0.08 l0 -0.04 l-0.62 0 l-0.04 0.04 l-0.26 0 l0.14 -0.04 c-0.46 0 -0.66 -0.06 -0.78 -0.06 c-0.18 0 -0.4 0.1 -0.4 0.68 c0 1.12 0.04 1.72 0.04 2 c0 0.3 -0.04 1.18 -0.04 1.3 c0 0.34 0.08 0.62 0.08 0.86 c-0.04 0 -0.08 0.14 -0.08 0.2 s0.08 0.44 0.08 0.62 c0 0.04 -0.04 0.1 -0.04 0.12 c0 0.06 -0.06 0.82 0.14 0.82 c0.46 0 0.8 -0.12 1.16 -0.12 l0 0.02 c0.06 0 0.24 -0.3 0.38 -0.3 c0.24 0 0.28 -0.08 0.54 -0.34 l0 0.02 c-0.02 0 0.34 -0.72 0.54 -0.96 c0.34 -0.16 -0.12 -1 0.88 -1 l0.06 0.04 c0 0.18 0.1 0.24 0.1 0.8 c-0.02 0.16 -0.04 0.68 -0.04 0.64 c0 0.22 0.04 0.56 0.04 0.84 c0 0.24 0 0.24 -0.04 0.36 c0 0.2 0.04 0.46 0.04 0.52 c0 0.26 -0.04 0.26 -0.04 0.46 c0 0.16 0.04 1.24 0.04 1.38 c0 0.08 -0.04 0.16 -0.04 0.28 l0 0.74 c0.02 0.02 -0.16 0.16 -0.26 0.16 c-0.64 0 -0.1 -0.12 -0.82 -1.42 c-0.56 -0.98 -0.74 -0.94 -1.06 -1.22 c0.02 0 -0.58 -0.2 -0.72 -0.2 l-0.06 -0.1 l-0.64 -0.02 c-0.3 0.16 -0.26 1 -0.26 0.68 c0 0.08 0.06 0.28 0.06 0.58 c0 0.14 -0.02 0.38 -0.06 0.6 c0 0.02 0.06 0.2 0.06 0.32 c0 0.2 -0.04 0.18 -0.04 0.26 c0 0.14 0.04 0.22 0.04 0.28 c-0.06 0.78 -0.08 2.18 -0.08 2.42 c0 1.26 -0.02 1.36 0.28 1.66 l0.86 0 c0.08 -0.02 0.18 -0.08 0.26 -0.08 c0.02 0 1.2 0.04 1.36 0.04 s0.02 -0.1 0.44 -0.1 c0.76 -0.3 0.72 -0.04 1.36 -0.54 c-0.02 0 -0.02 -0.02 -0.02 -0.02 c0 -0.06 0.5 -0.28 0.76 -0.6 c-0.02 0 -0.02 -0.02 -0.02 -0.02 c0 -0.3 0.88 -0.52 0.88 -1.24 c0 -0.08 0.36 -0.54 0.36 -0.66 c0.5 -1.26 0.18 -1.2 0.82 -1.2 c0.02 0 0.24 0 0.24 0.26 c0 1.3 -0.2 2.9 -0.2 3.8 c0 0.14 0.02 0.28 0.02 0.42 c0 0.24 -0.08 0.44 -0.56 0.44 l-7.7 0 c-1.16 0 -1.58 0.04 -3.72 0.04 c-0.38 -0.12 -0.28 -0.28 -0.28 -0.32 z M54.46 19.8 l0 -0.02 l0 0.06 c0 0.06 0.02 0.14 0.2 0.14 c0.04 0 0.1 0 0.16 -0.02 l0 -0.04 l-0.16 -0.18 c-0.02 0.04 -0.04 0.08 -0.08 0.1 c-0.02 0 -0.08 -0.02 -0.12 -0.06 l0 0.02 z M61.559999999999995 19.88 l0.02 0.04 c0.02 -0.02 0.02 -0.02 0.02 -0.08 z M60.78 19.84 c-0.06 0 -0.08 0 -0.1 0.04 l0.1 0 l0 -0.04 z M55.16 19.62 c0.04 0 0.12 0.04 0.14 0.04 c0.18 0 0.12 0 0.18 -0.04 c-0.04 0 -0.18 -0.04 -0.2 -0.04 c-0.08 0 -0.08 0 -0.12 0.04 z M66.14 19.62 c0.02 0.06 0.08 0.04 0.12 0.04 c-0.02 -0.04 -0.06 -0.04 -0.12 -0.04 z M56.699999999999996 19.62 c0 -0.02 -0.02 -0.02 -0.04 -0.02 s-0.04 0 -0.04 0.02 s0.02 0.04 0.04 0.04 s0.04 -0.02 0.04 -0.04 z M54.58 19.56 l0 0.02 l0.2 0 c-0.04 -0.02 -0.16 -0.02 -0.2 -0.02 z M56.419999999999995 16.9 l-0.02 -0.02 c-0.02 0 -0.02 0.02 -0.02 0.02 c0 0.02 0 0.04 0.02 0.04 c0 0 0.02 -0.02 0.02 -0.04 z M56.379999999999995 16.04 l0 0.08 c0.02 0 0.02 -0.02 0.02 -0.04 s0 -0.04 -0.02 -0.04 z M56.419999999999995 15.92 c0.02 0.04 0.06 0.04 0.12 0.04 c0 -0.04 0.02 -0.16 -0.04 -0.2 c0 0.04 -0.08 0.1 -0.08 0.16 z M56.54 15.54 c0 0.02 0 0.04 0.02 0.06 l0.02 -0.06 l-0.04 0 z M66.53999999999999 15.54 c-0.02 0 -0.04 0.02 -0.04 0.04 c0 0 0.02 0.02 0.04 0.02 s0.02 -0.02 0.02 -0.02 c0 -0.02 0 -0.04 -0.02 -0.04 z M66.64 15.5 c-0.02 0 -0.02 0.02 -0.02 0.04 c0 0 0 0.02 0.02 0.02 l0 -0.06 z M56.419999999999995 12.48 c-0.02 0 -0.04 0.02 -0.04 0.04 c0 0 0.02 0.02 0.04 0.02 s0.02 -0.02 0.02 -0.02 c0 -0.02 0 -0.04 -0.02 -0.04 z M56.559999999999995 12.48 c0 -0.02 0 -0.02 -0.02 -0.02 l0 0.04 c0.02 0 0.02 0 0.02 -0.02 z M56.419999999999995 11.6 l-0.02 -0.02 c-0.02 0 -0.02 0.02 -0.02 0.02 c0 0.02 0 0.04 0.02 0.04 c0 0 0.02 -0.02 0.02 -0.04 z M62.8 9.92 c0 -0.02 -0.02 -0.02 -0.04 -0.02 c0 0 -0.02 0 -0.02 0.02 s0.02 0.04 0.02 0.04 c0.02 0 0.04 -0.02 0.04 -0.04 z M65.64 8.96 c-0.02 0 -0.04 0.02 -0.04 0.04 c0 0 0.02 0.02 0.04 0.02 s0.02 -0.02 0.02 -0.02 c0 -0.02 0 -0.04 -0.02 -0.04 z M58.68 7.960000000000001 c-0.02 0.02 -0.02 0.06 -0.02 0.08 l0.22 0 c-0.02 -0.04 -0.1 -0.08 -0.2 -0.08 z M56.379999999999995 7.18 l0 0.08 c0.02 0 0.02 -0.02 0.02 -0.04 s0 -0.04 -0.02 -0.04 z M56.379999999999995 6.16 l0 0.08 c0.02 0 0.02 -0.02 0.02 -0.04 s0 -0.04 -0.02 -0.04 z M65.84 5.42 l0 0.2 l0.02 -0.1 c0 -0.04 0 -0.06 -0.02 -0.1 z M55.68 5.539999999999999 c-0.02 0 -0.02 0.02 -0.02 0.04 s0 0.04 0.02 0.04 s0.02 -0.02 0.02 -0.04 s0 -0.04 -0.02 -0.04 z M57.36 5.58 c0 -0.02 -0.02 -0.02 -0.02 -0.02 c-0.02 0 -0.02 0 -0.02 0.02 s0 0.04 0.02 0.04 c0 0 0.02 -0.02 0.02 -0.04 z M55.12 5.380000000000001 c-0.18 0 -0.08 0.14 -0.14 0.16 c0.12 0 0.14 -0.02 0.14 -0.06 c0 -0.02 -0.02 -0.04 -0.02 -0.06 s0.02 -0.02 0.02 -0.04 z M55.599999999999994 5.48 l0.06 0.04 l0.02 -0.04 l-0.04 -0.02 z M54.72 5.42 c-0.02 0 -0.02 0.02 -0.02 0.04 c0 0 0 0.02 0.02 0.02 s0.02 -0.02 0.02 -0.02 c0 -0.02 0 -0.04 -0.02 -0.04 z M54.919999999999995 5.34 l-0.14 0.04 l0.14 0 l0 -0.04 z M56.699999999999996 5.34 c-0.02 0 -0.04 0.02 -0.04 0.02 c0 0.02 0.02 0.02 0.04 0.02 c0 0 0.02 0 0.02 -0.02 z M58.72 5.34 l0 0.04 l0.02 0 z M55.019999999999996 5.34 l-0.04 0 c0 0.02 0 0.04 0.02 0.04 c0 0 0.02 -0.02 0.02 -0.04 z M55.48 5.32 c-0.04 0 -0.04 0.04 -0.04 0.04 c0.02 0 0.02 -0.02 0.04 -0.04 z M56.339999999999996 5.34 l-0.04 0 c0 0.02 0 0.04 0.02 0.04 c0 0 0.02 -0.02 0.02 -0.04 z M59.599999999999994 5.32 c-0.04 0 -0.08 0.02 -0.12 0.02 l0.14 0 z M54.419999999999995 5.32 c0 0 0 -0.02 -0.02 -0.02 l0 0.04 c0.02 0 0.02 0 0.02 -0.02 z M60.459999999999994 5.26 c0 0.08 0.02 0.04 0.04 0.06 c0 0 0.02 0 0.04 -0.02 l-0.04 -0.08 z M65.75999999999999 5.0600000000000005 l0 0.24 l0.04 0 c0 -0.06 0.02 -0.24 -0.04 -0.24 z M55.239999999999995 5.1 c-0.02 0 -0.04 0.02 -0.04 0.02 c0 0.02 0.02 0.02 0.04 0.02 s0.02 0 0.02 -0.02 c0 0 0 -0.02 -0.02 -0.02 z M54.58 5.1 l-0.02 -0.04 z M54.82 5.02 c-0.04 0.02 -0.06 0.04 -0.06 0.06 l0.02 0.02 l0.04 0 l0 -0.08 z M79.56 20.22 c-0.04 -0.04 -0.16 -0.12 -0.2 -0.16 c0.04 0 -0.46 -0.46 -0.46 -0.68 c0 -0.08 -0.44 -0.52 -0.44 -0.72 c0 -0.18 -0.58 -0.46 -0.58 -0.86 c-0.28 -0.6 -0.48 -0.6 -0.52 -0.8 c0.02 0 0.04 0 0.04 -0.02 s-0.48 -0.36 -0.38 -0.56 c0 0 -0.02 0.02 -0.04 0.02 c-0.04 0 -0.14 -0.08 -0.44 -0.7 c0 -0.12 -0.42 -0.3 -0.5 -0.72 c-0.38 -0.26 -0.04 -0.42 -0.84 -1.22 c-0.26 -0.2 0.2 0.18 -0.7 -1.08 c0 -0.04 0 -0.06 0.04 -0.1 c0 -0.04 -0.04 -0.04 -0.14 -0.04 l0 -0.02 c0 -0.1 -0.3 -0.24 -0.3 -0.42 c0 -0.08 -0.18 -0.46 -0.5 -0.78 c-0.02 0.02 -0.02 0.04 -0.02 0.04 l0 0 s0.02 -0.02 0.02 -0.04 c0 -0.08 -0.08 -0.28 -0.52 -0.76 c0 -0.26 -0.38 -0.34 -0.48 -0.76 c0 -0.08 -0.6 -0.58 -0.62 -0.92 l0 -0.02 c0 -0.12 -0.34 -0.32 -0.5 -0.72 c0 -0.26 -0.42 -0.38 -0.42 -0.72 c-0.1 0 -0.16 -0.36 -0.68 -0.9 c-0.1 0.02 -0.26 0.1 -0.26 0.18 l0 0.76 c0 0.04 0.02 0.1 0.02 0.14 c0 0.02 -0.02 0.64 -0.02 0.72 c0 0.68 0.02 0.84 0.02 1.04 c0 1.06 -0.02 1.32 -0.02 1.66 c0 0.68 0.06 1.26 0.06 1.98 c0 0.02 -0.04 0.08 -0.04 0.36 l0 5.82 c0.06 0.06 0.16 0.2 0.24 0.2 l1.42 0 c0.2 0 0.46 0.12 0.46 0.4 c0 0.18 -0.14 0.22 -0.3 0.22 l-1.34 0 l-0.24 -0.08 l0.08 0 l-0.12 -0.12 l0 0.16 c-0.14 0.02 -1.32 0.06 -1.32 0.06 c-0.02 0 -0.06 0 -0.1 -0.02 c0.04 -0.02 0.08 -0.04 0.1 -0.08 c-0.16 0 -0.16 0.02 -0.22 0.08 l-0.38 0 l-0.04 -0.04 l0.04 -0.04 l-0.04 -0.04 c-0.04 0.02 -0.2 0.04 -0.2 0.08 l0.04 0.04 c-0.14 0.04 -0.22 0.02 -0.4 0.02 s-0.44 -0.02 -0.44 -0.26 c0 -0.44 0.74 -0.46 1.28 -0.46 l0.08 0.04 l0.5 0 l0.02 0 c0.18 0 0.18 -0.84 0.18 -1.22 c0 -3.14 -0.08 -3.88 -0.08 -10.28 c0.08 -0.24 0.08 -1.12 0.08 -1.58 c0 -0.44 -0.06 -0.74 -0.64 -0.74 c-0.66 0.04 -0.48 0.16 -0.86 0.16 c-0.28 0 -0.64 -0.1 -0.64 -0.44 c0 -0.22 0.38 -0.52 0.6 -0.52 c0.58 0 -0.06 0.2 1.56 0.2 c0.18 0 0.36 -0.06 0.46 -0.06 c0.3 0 0.6 0.06 0.88 0.06 c0.16 0 0.3 -0.02 0.38 -0.06 c0.06 0.04 0.24 0.04 0.3 0.04 l1.02 0 c0.48 0 0.94 0.98 0.96 0.98 c0.06 0 0.68 1.04 0.68 1.14 c0 0 1.62 2.42 2.06 3.08 l0 0.02 c0 0.04 0.3 0.22 0.3 0.44 l-0.02 0 l-0.02 0 c0 0.06 0.42 0.38 0.42 0.54 c0.56 0.74 0.26 0.68 0.84 1.26 l0.28 0.58 c0.02 0.06 0.46 0.46 0.46 0.68 c0.24 0.02 0.36 0.9 0.7 0.92 c0.08 0 0.2 0 0.2 -0.1 l0 -1.6 c0 -0.02 0.04 -0.14 0.04 -0.16 c0 -0.22 -0.04 -0.34 -0.04 -0.52 c0 -0.64 -0.04 -4.06 -0.04 -6.24 c-0.04 -0.18 -0.12 -0.32 -0.22 -0.4 c-0.7 0 -0.72 0.04 -0.92 0.04 c-0.66 0 -0.82 0.04 -0.82 -0.42 c0 -0.24 0.28 -0.28 0.72 -0.28 c0.34 0 0.88 0.02 1.56 0.08 c0.06 0 0.24 -0.04 0.3 -0.04 c0.08 0 0.24 0.04 0.36 0.04 c0.48 -0.04 0.94 -0.08 1.28 -0.08 c0.02 0.04 0.38 0.12 0.42 0.24 l0 0.34 c-0.02 0.08 -0.36 0.12 -0.46 0.12 c-0.22 0 -0.5 -0.04 -0.72 -0.04 c-0.66 0.16 -0.78 -0.18 -0.78 0.56 l0 2.98 c0 0.2 0.02 0.28 0.02 0.62 c0 0.42 0 2.9 -0.06 3 c0 -0.04 0.04 1.98 0.04 2.26 c0 0.8 -0.04 0.72 -0.04 0.86 c0 0.1 0.06 0.44 0.06 0.56 l0 -0.06 c0 0 -0.06 0.26 -0.06 1.5 c0 0.78 0.06 1.62 0.06 1.96 c0 0.14 -0.04 0.22 -0.28 0.48 c0 0.02 0 0.04 -0.02 0.04 s-0.06 -0.1 -0.2 -0.1 z M79.56 20.04 l0 0.02 l0.06 0 z M67.7 19.96 c0.02 0.02 0.02 0.04 0.06 0.04 c-0.02 -0.04 -0.06 -0.04 -0.06 -0.04 z M68 19.96 c-0.04 0 -0.06 0.02 -0.08 0.04 l0.04 0 s0.04 0 0.06 -0.04 l-0.02 0 z M68.5 19.96 l0.04 0.04 c0.04 0 0.2 -0.12 0.2 -0.32 l-0.12 0 c0 0.12 0.02 0.2 -0.12 0.28 z M69.24000000000001 19.96 c0 -0.02 -0.02 -0.02 -0.04 -0.02 c0 0 -0.02 0 -0.02 0.02 s0.02 0.04 0.02 0.04 c0.02 0 0.04 -0.02 0.04 -0.04 z M70.98 19.92 c0 0 -0.02 0.02 -0.02 0.04 s0.02 0.04 0.02 0.04 c0.02 0 0.02 -0.02 0.02 -0.04 s0 -0.04 -0.02 -0.04 z M71.24000000000001 19.92 l0 0.04 l0.04 0 l0 -0.04 l-0.04 0 z M72.02 19.92 c-0.02 0 -0.04 0.02 -0.04 0.04 s0.02 0.04 0.04 0.04 s0.02 -0.02 0.02 -0.04 s0 -0.04 -0.02 -0.04 z M68.78 19.9 c-0.02 0 -0.04 0 -0.04 0.02 l0.06 0 c0 -0.02 -0.02 -0.02 -0.02 -0.02 z M71.64 19.88 c-0.04 0 -0.06 0 -0.08 0.02 z M67.56 19.76 l0 0.04 l0 -0.06 l0 0.02 z M67.56 19.68 c0.04 0.02 0.1 0.02 0.14 0.08 c0.04 0 0.12 -0.06 0.14 -0.12 l-0.28 0 l0 0.04 z M72.08 19.64 l0 0.1 l0.04 0 c0 -0.04 0 -0.08 -0.04 -0.1 z M71.96000000000001 19.58 c-0.04 0 -0.12 0.02 -0.12 0.08 c0 0.02 0.02 0.02 0.02 0.04 c0.06 0 0.1 -0.04 0.1 -0.12 z M69.7 19.34 c0 0.04 0.02 0.08 0.06 0.08 s0.14 -0.04 0.14 -0.04 l0 -0.04 l-0.2 0 z M69.96000000000001 19.06 l0 0.12 l0.02 0 c0 -0.02 0 -0.06 -0.02 -0.12 z M69.76 18.2 c-0.06 0 -0.06 0.06 -0.06 0.06 l0.06 -0.06 l0 0 z M69.7 17.14 c-0.02 0 -0.02 0.02 -0.02 0.04 l0.04 0 c0 -0.02 0 -0.04 -0.02 -0.04 z M69.9 16.84 l0 0.02 l0.02 0 z M77.32000000000001 16.86 l-0.02 0 l0.02 0 z M69.76 16.16 l0.08 0.08 c0 -0.02 0.02 -0.04 0.02 -0.06 s-0.04 -0.06 -0.1 -0.08 c-0.1 0 -0.12 0 -0.16 0.02 c0 0.06 0.02 0.06 0.04 0.08 c0.04 -0.02 0.08 -0.04 0.12 -0.04 z M69.92 15.68 l0.04 0.04 c0.02 -0.02 0.02 -0.04 0.02 -0.08 c0 0 -0.04 0.02 -0.06 0.04 z M69.64 15.18 c-0.02 0 -0.04 0.02 -0.04 0.02 s0.02 0.02 0.04 0.02 s0.02 -0.02 0.02 -0.02 s0 -0.02 -0.02 -0.02 z M69.60000000000001 13.18 c-0.02 0 -0.04 0.02 -0.04 0.04 l0.04 0 l0.02 0 c0 -0.02 0 -0.04 -0.02 -0.04 z M69.60000000000001 13.02 l0 0.08 c0 0.02 0.02 0.02 0.02 0.02 c0.04 0 0.06 -0.1 0.06 -0.1 l-0.08 0 z M69.60000000000001 12.46 c-0.02 0 -0.04 0.02 -0.04 0.02 c0 0.02 0.02 0.02 0.04 0.02 s0.02 0 0.02 -0.02 c0 0 0 -0.02 -0.02 -0.02 z M69.60000000000001 9.3 c-0.02 0 -0.04 0.02 -0.04 0.04 s0.02 0.04 0.04 0.04 s0.02 -0.02 0.02 -0.04 s0 -0.04 -0.02 -0.04 z M69.56 9.22 c-0.02 0 -0.02 0.02 -0.02 0.04 l0.04 0 c0 -0.02 0 -0.04 -0.02 -0.04 z M80.16 5.48 c0 0 -0.02 0 -0.02 0.02 s0.02 0.04 0.02 0.04 c0.02 0 0.02 -0.02 0.02 -0.04 s0 -0.02 -0.02 -0.02 z M80.62 5.42 c0 0.06 0.06 0.06 0.08 0.06 l0.08 -0.26 c0.1 0 0.18 0.08 0.3 0.08 c0.02 0 0.04 0 0.04 -0.08 c0 -0.1 -0.16 -0.1 -0.28 -0.1 l0.02 0 s-0.26 0.12 -0.26 0.26 c0 0 0 0.02 0.02 0.04 z M81.64 5.1 l-0.02 -0.02 c0 0.04 0.12 0.32 0.12 0.4 c0.02 0 0.1 0 0.1 -0.24 c0 -0.16 -0.18 -0.12 -0.2 -0.14 z M80.38 5.42 c-0.02 0 -0.02 0.02 -0.02 0.04 c0 0 0 0.02 0.02 0.02 s0.02 -0.02 0.02 -0.02 c0 -0.02 0 -0.04 -0.02 -0.04 z M80.36 5.380000000000001 c-0.02 0 -0.02 0.02 -0.02 0.02 c0 0.02 0 0.02 0.02 0.02 c0 0 0.02 0 0.02 -0.02 z M68.7 5.279999999999999 c-0.02 0 -0.02 0.02 -0.02 0.02 c0 0.02 0.06 0.06 0.1 0.08 l0 -0.1 l-0.08 0 z M69.86 5.279999999999999 c0.02 0.02 0.04 0.08 0.04 0.08 c0.02 0 0.02 0 0.02 -0.02 l0 -0.12 l0 0 l-0.02 0 c0 0 -0.02 0.02 -0.04 0.06 z M67.56 5.18 l0 0.08 c0.04 -0.04 0.08 -0.06 0.08 -0.12 c0 -0.02 -0.04 -0.02 -0.06 -0.02 s-0.02 0.02 -0.02 0.02 l0 0.04 z M69.36 5.18 c0 0.04 0 0.06 0.04 0.08 c0.02 -0.02 0.04 -0.04 0.04 -0.08 l-0.08 0 z M79.14 5.18 l0 0.08 l0.02 0 z M79.64 5.140000000000001 l0 0.12 c0.06 0 0.08 -0.08 0.08 -0.12 l-0.08 0 z M79.8 5.140000000000001 c0 0.08 0.02 0.12 0.06 0.12 c0.02 0 0.02 0 0.02 -0.02 c0 -0.06 -0.04 -0.1 -0.06 -0.1 l-0.02 0 z M77.78 5.119999999999999 l-0.02 0.02 s0.08 0.08 0.14 0.08 c0 0 0.02 0 0.1 -0.08 c0 -0.02 -0.16 -0.02 -0.22 -0.02 z M81.32000000000001 5.140000000000001 c-0.06 0 -0.06 0.04 -0.06 0.1 c0.02 0 0.06 -0.06 0.1 -0.1 l-0.04 0 z M68.3 5.140000000000001 c0.02 0.04 0.02 0.06 0.04 0.06 s0.02 -0.02 0.04 -0.02 l0 -0.04 l-0.08 0 z M77.62 5.119999999999999 l0 0.02 l0.02 0 z M85.98 20.1 c0 -0.04 0 -0.08 0.02 -0.12 c0 -0.04 -0.02 -0.08 -0.04 -0.08 c0 0.08 -0.1 0.16 -0.12 0.16 c-0.08 -0.08 -0.18 -0.16 -0.22 -0.26 c0 -0.66 1.82 -0.18 2.14 -0.52 l-0.04 -1.88 l0 -4.78 l0.04 -0.04 c0 -0.74 -0.08 -1.34 -0.08 -2 c0 -1.02 0.08 -2.7 0.08 -3.34 c0 -0.92 -0.02 -1.3 -0.26 -1.64 l-0.24 0 l0 0.08 c-1.16 0 -0.92 0.18 -1.38 0.38 c0.04 0 -0.5 0.06 -0.5 0.32 l0.02 0.02 c0 0.04 -0.46 0.04 -0.46 0.34 c-0.46 0 -0.96 1.26 -1.18 1.48 c0 0.18 -0.42 0.62 -0.42 1.02 l0 -0.02 s-0.02 0.76 -0.42 0.76 c-0.32 0 -0.44 0.02 -0.52 -0.22 c0 -1.58 0.24 -0.94 0.24 -4.56 c4.82 -0.24 9.5 -0.26 11.84 -0.26 c0.34 0 0.64 0.02 0.88 0.02 c0.1 0 0.38 -0.1 0.38 0.6 c0 0.16 0 0.12 -0.04 0.18 c0.08 0.38 -0.02 1.02 0.14 1.42 c-0.02 0.02 -0.06 0.2 -0.06 0.3 c0 0.32 0.18 1.2 0.18 1.94 c0 0.5 -0.16 0.52 -0.48 0.52 c-0.22 0 -0.64 -1.1 -0.74 -1.42 c0.18 0.02 -0.22 -0.02 -0.22 -0.4 c-0.46 -0.62 -0.3 -0.6 -0.68 -0.98 c-0.32 -0.64 -0.46 -0.4 -0.74 -0.7 l0 0.02 c0.02 0 -0.16 -0.38 -0.54 -0.38 c-0.02 -0.18 -0.24 -0.08 -0.32 -0.26 c-0.72 -0.04 -0.66 -0.24 -0.88 -0.24 l-0.06 0.02 c-0.42 0 -0.28 0 -0.4 -0.02 c-0.04 0 -0.08 0.02 -0.08 0.02 c0 0.02 0.02 0.04 0.02 0.04 c0 0.1 -0.22 0.04 -0.22 0.5 c0 0.74 0.06 2.58 0.06 4.62 l0 3.8 c0 0.04 -0.04 0.22 -0.04 0.24 c0 -0.02 0 0.1 0.04 0.16 c0 0.1 0.04 1.72 0.04 1.98 c0 0.52 -0.04 1.12 -0.04 1.52 c0 0.44 0.02 0.9 0.16 0.96 c0.98 0 1 -0.04 1.46 -0.04 c0.12 0 0.38 0.04 0.38 0.4 c0 0.14 -0.16 0.26 -0.28 0.34 c-0.18 0 -0.6 -0.16 -0.86 -0.16 c-0.12 0 -0.2 0.06 -0.28 0.06 c-0.16 -0.02 -0.32 -0.06 -0.44 -0.06 l-0.04 0.04 c-0.18 0 -0.4 0.06 -0.5 0.06 c-0.04 0 -0.1 -0.04 -0.16 -0.04 c-0.02 0 -0.08 0.02 -0.16 0.06 c-0.2 0 -0.42 0 -0.44 -0.06 l-1.04 0 s-0.04 0.06 -0.08 0.06 c0.08 -0.02 -0.12 0.06 -0.12 -0.06 c-0.16 0 -0.28 0.08 -0.48 0.08 c-0.14 0 -0.24 -0.02 -0.3 -0.1 l0.06 -0.04 l-0.34 0 c0 0.08 0 0.16 -0.04 0.2 l-0.04 -0.08 c-0.08 0 -0.08 0.1 -0.14 0.1 c-0.08 0 -0.2 -0.12 -0.22 -0.12 l0.08 -0.06 c0 -0.06 0 -0.08 -0.04 -0.1 l0 0.02 c-0.02 0 -0.04 -0.02 -0.08 -0.02 s-0.1 0.02 -0.12 0.1 l0.04 0.12 l-0.04 0.04 l-0.62 0 z M85.88 19.94 c-0.02 0 -0.04 0.02 -0.04 0.02 c0 0.02 0.02 0.02 0.04 0.02 s0.02 0 0.02 -0.02 c0 0 0 -0.02 -0.02 -0.02 z M87.66 19.9 c-0.02 0 -0.04 0.02 -0.04 0.04 s0.02 0.04 0.04 0.04 c0 0 0.02 -0.02 0.02 -0.04 s-0.02 -0.04 -0.02 -0.04 z M85.82 19.88 l0 0.02 l0.02 0 z M88.24 19.88 l-0.04 0.02 l0.08 0 z M88.03999999999999 19.88 c0 -0.02 -0.02 -0.02 -0.04 -0.02 s-0.04 0 -0.04 0.02 s0.02 0.02 0.04 0.02 s0.04 0 0.04 -0.02 z M88.48 19.88 l0 -0.02 c-0.02 0 -0.02 0 -0.02 0.02 s0 0.02 0.02 0.02 l0 -0.02 z M88.62 19.8 c-0.02 0 -0.04 0.02 -0.04 0.04 s0.02 0.04 0.04 0.04 s0.02 -0.02 0.02 -0.04 s0 -0.04 -0.02 -0.04 z M90.84 19.8 l0 0.04 l0.1 0 c-0.02 -0.04 -0.06 -0.04 -0.1 -0.04 z M91.88 19.8 l-0.04 0.04 l0.04 0 l0 -0.04 z M92.08 19.78 c-0.04 0 -0.04 0.04 -0.04 0.06 l0.04 0 l0 -0.06 z M85.78 19.68 c0 0.04 0 0.08 0.06 0.08 s0.12 -0.02 0.12 -0.04 c0 -0.14 -0.02 -0.1 -0.12 -0.16 c-0.06 0.04 -0.06 0.04 -0.06 0.12 z M86.44 19.68 c-0.04 0.02 -0.1 0.04 -0.1 0.06 s0.04 0.02 0.06 0.02 c0.04 0 0.06 0 0.06 -0.04 z M86.82 19.64 c-0.06 0.04 -0.04 0.08 -0.04 0.12 l0.2 0 c-0.04 -0.06 -0.14 -0.06 -0.16 -0.12 z M87.5 19.76 c0 -0.02 -0.02 -0.02 -0.04 -0.02 s-0.04 0 -0.04 0.02 s0.02 0.02 0.04 0.02 s0.04 0 0.04 -0.02 z M91.72 19.76 l0.02 -0.04 z M87.94 19 c0 0 -0.02 0.02 -0.02 0.04 s0.02 0.04 0.02 0.04 s0.02 -0.02 0.02 -0.04 s-0.02 -0.04 -0.02 -0.04 z M90.62 15.559999999999999 c-0.02 0 -0.04 0.02 -0.04 0.04 s0.02 0.04 0.04 0.04 s0.02 -0.02 0.02 -0.04 s0 -0.04 -0.02 -0.04 z M87.88 12.14 c-0.02 0 -0.04 0.02 -0.04 0.04 s0.02 0.04 0.04 0.04 s0.02 -0.02 0.02 -0.04 s0 -0.04 -0.02 -0.04 z M83.02 9.8 c-0.02 0 -0.04 0.02 -0.04 0.04 c0 0 0.02 0.02 0.04 0.02 s0.02 -0.02 0.02 -0.02 c0 -0.02 0 -0.04 -0.02 -0.04 z M95.74 9.6 c-0.16 0.02 -0.16 0.2 -0.16 0.24 c0.12 -0.12 0.16 -0.12 0.16 -0.24 z M83.08 9.54 l0 0.14 c0.02 -0.02 0.02 -0.1 0.02 -0.14 l-0.02 0 z M95.22 9.52 l0 0.02 l0.08 0 z M95.74 9.12 l0 0.04 l0.02 0 z M82.72 7.84 c0 0 -0.02 0.04 -0.02 0.08 l0.02 0.04 c0.02 0 0.02 -0.04 0.02 -0.06 s0 -0.04 -0.02 -0.06 z M95.5 7.9 l-0.02 0.02 c0 0.02 0.02 0.04 0.02 0.04 c0.02 0 0.02 -0.02 0.02 -0.04 c0 0 0 -0.02 -0.02 -0.02 z M82.72 7.74 c0 0 -0.02 0 -0.02 0.02 s0.02 0.04 0.02 0.04 c0.02 0 0.02 -0.02 0.02 -0.04 s0 -0.02 -0.02 -0.02 z M82.78 6.1 c-0.04 0.02 -0.06 0.04 -0.08 0.08 c0.08 0 0.08 -0.02 0.08 -0.08 z M85.14 5.9399999999999995 c-0.02 0 -0.04 0 -0.04 0.02 s0.02 0.04 0.04 0.04 s0.02 -0.02 0.02 -0.04 s0 -0.02 -0.02 -0.02 z M85.22 5.74 c0 0 -0.02 0 0.04 0.06 c0.02 -0.02 0.04 -0.04 0.04 -0.06 l-0.08 0 z M85.82 5.640000000000001 c-0.02 0 -0.04 0.02 -0.04 0.04 s0.02 0.04 0.04 0.04 c0 0 0.02 -0.02 0.02 -0.04 s-0.02 -0.04 -0.02 -0.04 z M86.78 5.48 c0 0.02 -0.06 0.1 -0.1 0.12 l0.14 0 c0 -0.04 0.02 -0.08 -0.04 -0.12 z M87.62 5.48 l0 0.04 l0.04 -0.04 l-0.04 0 z M85.14 5.4 c-0.02 0 -0.04 0.02 -0.04 0.04 s0.02 0.04 0.04 0.04 s0.02 -0.02 0.02 -0.04 s0 -0.04 -0.02 -0.04 z M85.24 5.4 c-0.02 0.02 -0.02 0.02 -0.02 0.04 c0 -0.02 0.02 -0.04 0.02 -0.04 z M85.76 5.359999999999999 l0 0.08 l0.02 -0.04 z M86.28 5.4 c-0.02 0 -0.04 0.02 -0.04 0.02 c0 0.02 0.02 0.02 0.04 0.02 c0 0 0.02 0 0.02 -0.02 z M92.62 5.4 l0 0.04 s0.08 0.04 0.08 -0.04 l-0.08 0 z M82.72 5.4 l0.06 0 l-0.02 0 c0.06 0 0.14 -0.04 0.18 -0.04 c0 0.02 -0.04 -0.14 -0.08 -0.16 c-0.1 0 -0.1 0.14 -0.14 0.2 z M83.46 5.359999999999999 c-0.02 0 -0.02 0.02 -0.02 0.04 l0.04 0 c0 -0.02 0 -0.04 -0.02 -0.04 z M92.12 5.359999999999999 c0.04 0.04 0.08 0.04 0.12 0.04 c-0.02 -0.04 -0.06 -0.04 -0.12 -0.04 z M92.86 5.279999999999999 c-0.02 0 -0.02 0.02 -0.02 0.04 s0 0.04 0.02 0.04 s0.02 -0.02 0.02 -0.04 s0 -0.04 -0.02 -0.04 z M95.42 5.119999999999999 l0.04 0.04 l0 -0.04 l-0.04 0 z M96.62 19.82 l0 -0.1 c0.04 -0.04 -0.02 -0.38 0.42 -0.38 c0.34 0 0.4 0.02 0.58 0.02 c0.4 0 0.7 -0.02 0.76 -0.12 l0 -1.7 c0 -0.04 -0.02 -0.18 -0.02 -0.2 l-0.02 0.02 c-0.04 -0.04 0.04 0.18 0.04 -0.54 c0 -1.5 -0.02 -2.06 -0.02 -2.56 c0 -0.32 0 -0.94 0.04 -1.46 c0 -0.04 -0.08 -0.3 -0.08 -0.8 c0 -0.24 0.06 -0.24 0.06 -0.36 c0 -0.32 -0.02 -0.62 -0.02 -0.86 c0 -0.42 0.02 -0.74 0.02 -1.2 c0 -0.12 0.3 -0.1 0.36 -0.16 c0 0 0 -0.1 -0.18 -0.1 c0 0 -0.06 0 -0.12 0.08 c-0.02 0 -0.04 -0.02 -0.06 -0.08 l0 -3.38 c0 -0.26 -0.06 -0.42 -0.32 -0.42 c-0.38 0 -0.46 0.06 -1.14 0.06 c-0.54 0 -0.22 -0.08 -0.52 -0.26 c0 -0.48 1.5 -0.34 1.92 -0.4 l-0.06 0 c0 0.02 1.16 0.08 1.16 0.08 c0.04 0 0.08 0.02 0.12 0.02 c0.24 0 0.34 -0.1 0.52 -0.1 c0.08 0 0.16 0.02 0.26 0.02 c0.06 0 0.22 -0.02 0.32 -0.02 c0.24 0 0.96 0.02 1.18 0.02 c0.16 0 0.28 -0.06 0.6 -0.06 c0.1 0 1.84 0.04 2.06 0.04 c0.4 0 1.06 0.2 1.6 0.2 c0.76 0.08 0.3 0.18 1.06 0.36 c-0.02 0 -0.04 -0.02 -0.04 -0.02 c0 0.02 0.56 0.32 0.56 0.38 c0.24 0.06 0.6 0.56 0.78 0.72 l-0.02 -0.02 s0.54 0.76 0.54 1.44 c0 0.74 0 0.78 -0.16 1.28 c0 0.34 -0.46 0.94 -1.26 1.62 c-0.1 -0.04 -0.22 0.34 -0.58 0.34 c0.06 -0.2 -0.1 0.26 -0.66 0.3 c-0.02 -0.02 -0.04 -0.02 -0.04 -0.02 c-0.1 0 -0.24 0.18 -0.32 0.18 c-0.76 0.2 -1.1 0.12 -1.1 0.42 c0 0 -0.04 0.16 0.12 0.16 c0.22 -0.04 0.58 0.32 0.7 0.32 c0.42 0 0.5 0.38 0.84 0.38 c0.36 0.16 0.5 0.28 0.94 0.74 c0.44 1.3 0.78 0.6 0.78 1.58 c0 0.54 0.18 0.92 0.18 1.46 c0 0.08 -0.04 0.42 -0.04 1.12 c0.04 0.26 0.06 0.78 0.14 0.86 l0 -0.04 c0 0.02 -0.06 0.66 0.64 0.66 c0.48 0 0.7 -0.06 0.84 -0.06 c0 0 0.02 0.02 0.04 0.02 c0.04 0 0.14 -0.04 0.22 -0.04 s0.16 0.02 0.2 0.1 l-0.14 0 c0 0.1 0.06 0.1 0.06 0.14 c0.04 -0.02 0.06 -0.06 0.08 -0.06 l0.02 0 l0 0.26 c-0.06 0 -0.06 -0.06 -0.06 -0.14 c-0.04 0.02 -0.06 0.02 -0.16 0.06 c0 0.04 0.02 0.08 0.16 0.14 c-0.08 0.04 -0.1 0.14 -0.2 0.14 l0 -0.02 s-0.1 0.2 -0.7 0.2 c-0.22 0 -1.58 -0.08 -1.94 -0.1 c0 0.02 0 0.02 -0.02 0.02 c-0.16 0 -0.54 -0.4 -0.86 -0.4 l0.02 0 c0 -0.08 -0.9 -0.5 -0.92 -0.88 l0.02 0.02 c0 -0.02 -0.2 -0.2 -0.2 -0.26 c0 -0.04 0.02 -0.16 0.02 -0.28 c0 -0.06 -0.06 -0.06 -0.16 -0.1 c-0.14 -3.26 -0.44 -4.16 -0.74 -4.6 c-0.06 0.22 0.08 -0.24 -0.38 -0.46 c0 -0.14 -0.62 -0.36 -0.6 -0.44 c-0.04 0 -0.08 0.02 -0.1 0.02 c-0.42 0 -0.4 -0.4 -1.08 -0.4 l-1.08 0 c-0.22 0.46 -0.22 1.04 -0.22 1.32 c0 0.06 0 0.52 0.04 0.56 c0 0.02 -0.02 0.08 -0.06 0.28 c0 0.06 0.04 0.3 0.04 0.46 l0 -0.02 c0 0.12 -0.02 0.56 -0.02 0.7 c0 0.26 0.02 0.32 0.02 0.5 l0 2.32 c0 0.04 0.04 0.16 0.04 0.2 c0 0.06 -0.04 0.18 -0.04 0.26 c0 0.26 0.04 0.3 0.04 0.4 c-0.02 0.02 -0.04 0.02 -0.04 0.04 c0 0.06 0.28 0.1 0.82 0.1 c0.02 0 0.42 -0.04 0.44 -0.04 c0.56 0 0.56 0.04 0.68 0.2 c0 0.36 -0.08 0.42 -0.14 0.42 c-0.02 0 -0.04 -0.02 -0.08 -0.1 c-0.1 0 -0.12 0 -0.12 0.02 c0.16 0.18 -1.94 0.18 -2.16 0.18 l0.04 0 s-0.68 -0.02 -0.94 -0.08 c-0.8 0.08 -2.18 0 -2.74 0.2 c-0.24 0 -0.46 0 -0.46 -0.32 z M108.96000000000001 19.94 c-0.02 0 -0.04 0.02 -0.04 0.04 s0.02 0.04 0.04 0.04 c0 0 0.02 -0.02 0.02 -0.04 s-0.02 -0.04 -0.02 -0.04 z M109.5 19.76 c-0.14 0 -0.1 0.08 -0.16 0.18 c0 0 0.02 0.02 0.04 0.02 c0.06 0 0.12 -0.1 0.12 -0.2 z M97.66000000000001 19.88 c-0.04 0 -0.1 0 -0.14 0.02 c0.04 0 0.1 0 0.14 -0.02 z M97.7 19.88 l0 0.02 l0.04 0 z M98.42 19.9 l-0.02 -0.02 c-0.02 0 -0.02 0.02 -0.02 0.02 c0 0.02 0 0.04 0.02 0.04 c0 0 0.02 -0.02 0.02 -0.04 z M98.80000000000001 19.86 c-0.02 0.02 -0.04 0.02 -0.04 0.04 c0.02 0 0.06 0 0.08 -0.02 z M101.9 19.82 l0 0.06 l0.12 0 c-0.04 -0.04 -0.06 -0.06 -0.12 -0.06 z M102.68 19.86 c-0.02 0 -0.04 0.02 -0.04 0.02 s0.02 0.02 0.04 0.02 s0.02 -0.02 0.02 -0.02 s0 -0.02 -0.02 -0.02 z M109.58000000000001 19.7 c-0.02 0.06 0.08 0.16 0.08 0.18 c0.1 0 0.1 0 0.16 -0.02 c-0.06 -0.18 0 -0.22 -0.16 -0.3 c-0.06 0.04 -0.08 0.02 -0.08 0.14 z M101.62 19.82 l-0.04 0.04 l0.04 0 l0 -0.04 z M102.96000000000001 19.46 c0 0.18 0.12 0.18 0.12 0.32 l0.04 0 l0 -0.22 c-0.02 -0.04 -0.06 -0.08 -0.16 -0.1 z M96.96000000000001 19.5 l0 0.06 c0 -0.02 0.02 0.18 0.14 0.18 c0.02 0 0.06 -0.04 0.1 -0.08 c-0.02 0.02 -0.16 -0.16 -0.22 -0.16 l-0.02 0 z M97.30000000000001 19.7 c0 -0.02 -0.02 -0.02 -0.02 -0.02 c-0.02 0 -0.02 0 -0.02 0.02 c0 0 0 0.02 0.02 0.02 z M101.66000000000001 19.66 c-0.02 0 -0.02 0.02 -0.02 0.02 c0 0.02 0 0.02 0.02 0.02 s0.02 0 0.02 -0.02 c0 0 0 -0.02 -0.02 -0.02 z M102.28 19.6 l0 0.1 c0.04 -0.02 0.08 -0.04 0.1 -0.08 c-0.04 -0.02 -0.06 -0.02 -0.1 -0.02 z M96.96000000000001 19.36 c-0.02 0 -0.02 0.02 -0.02 0.04 s0 0.04 0.02 0.04 s0.02 -0.02 0.02 -0.04 s0 -0.04 -0.02 -0.04 z M106.18 18.84 c0.02 0.04 0.04 0.1 0.04 0.1 c0.02 0 0.02 0 0.02 -0.02 l0 -0.08 l-0.06 0 z M100.60000000000001 18.3 l0.08 0.04 c0.04 -0.02 0.04 -0.06 0.04 -0.1 c-0.06 0 -0.08 0.02 -0.12 0.06 z M105.34 17.5 c0.02 0 0.02 0.02 0.02 0.04 c0 0 0 0.02 -0.02 0.02 s-0.02 -0.02 -0.02 -0.02 c0 -0.02 0 -0.04 0.02 -0.04 z M105.58000000000001 17.48 c0.02 0.02 0.04 0.02 0.08 0.02 c-0.04 -0.02 -0.06 -0.02 -0.08 -0.02 z M98.64 15.4 c-0.02 0 -0.04 0.02 -0.04 0.04 s0.02 0.04 0.04 0.04 s0.02 -0.02 0.02 -0.04 s0 -0.04 -0.02 -0.04 z M98.48 14.879999999999999 c-0.02 0 -0.04 0.02 -0.04 0.04 s0.02 0.04 0.04 0.04 s0.02 -0.02 0.02 -0.04 s0 -0.04 -0.02 -0.04 z M105.16 12.48 c-0.02 0 -0.04 0.02 -0.04 0.02 c0 0.02 0.02 0.04 0.04 0.04 c0 0 0.02 -0.02 0.02 -0.04 z M100.38000000000001 12.14 l0 0.08 l0.02 0.02 c0.06 0 0.14 -0.08 0.14 -0.1 l-0.16 0 z M100.42 11.94 c0 0.02 -0.02 0.02 -0.02 0.02 c0 0.02 0.02 0.02 0.08 0.02 c0 0 0.02 0 0.06 -0.02 c-0.02 -0.06 0 -0.08 -0.06 -0.16 c-0.02 0 -0.08 0.12 -0.06 0.14 z M101.26 10.22 l0 1.02 c0 0.34 0.2 0.4 0.38 0.5 c3.18 -0.08 3.18 -0.52 3.48 -0.82 c-0.02 0 -0.02 -0.02 -0.02 -0.02 c0 -0.1 0.3 -0.3 0.3 -0.44 l-0.02 0 c0 -0.08 0.42 -0.74 0.42 -1.6 c0 -2.04 -0.56 -2.42 -0.64 -2.84 c0 -0.02 -0.6 -0.54 -1.3 -0.54 c-0.44 0 -0.54 0.04 -0.7 0.04 l-1.5 0 c-0.42 0 -0.26 0.2 -0.38 0.42 l0 1.58 l0.04 0.1 c0 0.78 -0.08 1.5 -0.08 2.2 c0 0.04 0 0.1 0.06 0.16 c0 0.04 -0.04 0.1 -0.04 0.24 z M98.64 9.78 c-0.02 0 -0.04 0.02 -0.04 0.02 l0.04 0 l0.02 0 s0 -0.02 -0.02 -0.02 z M98.58 9.68 c-0.02 0 -0.02 0.02 -0.02 0.04 c0 0 0 0.02 0.02 0.02 l0.02 -0.02 c0 -0.02 -0.02 -0.04 -0.02 -0.04 z M98.64 9.58 c-0.02 0 -0.04 0.02 -0.04 0.04 c0 0 0.02 0.02 0.04 0.02 s0.02 -0.02 0.02 -0.02 c0 -0.02 0 -0.04 -0.02 -0.04 z M98.48 8.42 l0 0.1 l0.04 0 c0 -0.04 0 -0.08 -0.04 -0.1 z M107.5 6.1 c0.02 0.04 0.08 0.04 0.1 0.04 l0 -0.12 c-0.06 0 -0.1 0 -0.1 0.08 z M105.98 5.42 c-0.02 0 -0.04 0.02 -0.04 0.04 s0.02 0.02 0.04 0.02 s0.02 0 0.02 -0.02 s0 -0.04 -0.02 -0.04 z M97.7 5.279999999999999 c0.04 0.02 0.08 0.02 0.12 0.02 l-0.08 -0.06 z M99.64 5.279999999999999 l0 -0.02 c-0.02 0 -0.02 0 -0.02 0.02 s0 0.02 0.02 0.02 l0 -0.02 z M104.32000000000001 5.24 l0.08 0.04 c0.1 0 0.1 -0.04 0.1 -0.14 c0 -0.02 -0.02 -0.02 -0.1 -0.02 c-0.04 0 -0.08 0 -0.08 0.12 z M102.28 5.119999999999999 c0 0.04 -0.02 0.12 0.04 0.12 c0.02 -0.02 0.04 -0.08 0.06 -0.12 l-0.1 0 z M105.08000000000001 5.199999999999999 c-0.02 0 -0.04 0.02 -0.04 0.02 c0 0.02 0.02 0.02 0.04 0.02 s0.02 0 0.02 -0.02 c0 0 0 -0.02 -0.02 -0.02 z M98 5.119999999999999 l0 0.04 c0 -0.02 0.06 0.04 0.1 -0.04 l-0.1 0 z M103.16000000000001 5.119999999999999 c-0.04 0 -0.06 0.02 -0.08 0.04 l0.08 0 l0 -0.04 z M96.62 5.119999999999999 l0.02 0 l0.48 0 l-0.5 0 z M114.94000000000001 19.72 c0 -0.26 0.2 -0.38 0.2 -0.42 l1.66 0 c0.14 0 0.04 -0.02 0.3 -0.36 l0 -2.64 c0 -0.02 -0.04 -0.14 -0.04 -0.18 c0 -0.14 0.04 -0.16 0.04 -0.32 c0 -0.18 -0.04 -0.24 -0.04 -0.44 c0 -0.18 0.04 -0.12 0.04 -0.3 c0 -0.1 -0.06 -0.68 -0.06 -0.84 c0 -0.12 0.06 -0.22 0.06 -0.26 c-0.4 -1.02 -0.52 -1.36 -0.94 -1.88 c0 -0.3 -0.44 -0.4 -0.44 -0.78 c0.02 0 0.02 0 0.02 -0.02 s-0.7 -1.3 -0.88 -1.42 c-0.22 -0.22 -0.26 -0.28 -0.26 -0.3 s0.04 0 0.04 -0.06 c0 -0.08 -0.12 -0.36 -0.76 -1.3 c0.02 0 0.02 -0.02 0.02 -0.04 c0 -0.08 -0.36 -0.24 -0.36 -0.62 c0.02 0 0.02 -0.02 0.02 -0.02 c0 -0.12 -0.54 -0.4 -0.54 -0.78 c0 -0.3 -0.38 -0.7 -0.82 -1.16 c0 -0.32 0.32 -0.22 0.32 -0.32 c0 -0.08 -0.08 -0.08 -0.14 -0.08 c-0.04 0 -0.1 0.12 -0.16 0.12 c-0.18 0 -0.18 -0.12 -0.3 -0.12 c0 0.12 0.12 0.24 0.12 0.4 c0 0.04 -0.28 0.1 -0.4 0.1 c0 -0.02 -0.02 -0.02 -0.06 -0.02 c-0.08 0 -0.26 0.04 -0.42 0.04 c-0.2 0 -0.38 -0.06 -0.38 -0.32 c0 -0.22 0 -0.44 0.44 -0.44 c0.16 0.02 1.46 0.04 2.54 0.04 l3.14 0.02 c0.1 0 0.38 -0.02 0.44 -0.02 c0.02 0.04 0.26 0.02 0.26 0.16 c0 0.18 0.02 0.38 -0.18 0.48 c-0.46 0 -0.58 -0.04 -0.66 -0.04 c-0.08 0.1 -0.92 -0.02 -0.92 0.14 c0 0.58 0.5 0.68 0.5 1.04 c0 0.02 -0.02 0.04 -0.02 0.06 c0 0.08 0.34 0.28 0.34 0.48 c0 0.14 0.44 0.44 0.44 0.66 c0 0.4 0.54 0.72 0.54 1.02 c-0.02 0.02 -0.02 0.02 -0.02 0.04 c0 0.12 0.4 0.4 0.4 0.66 c0.06 0 0.14 0.5 0.38 0.68 c0.02 0 0.22 0.52 0.34 0.58 l-0.02 0 c0 0.04 0.2 0.24 0.2 0.38 c-0.02 0.1 0.42 0.44 0.42 0.64 c0 0.28 0.14 0.2 0.2 0.28 c0.28 0 0.4 -0.38 0.5 -0.64 c0.16 0 0.56 -1.32 0.74 -1.44 c0.08 -0.72 -0.18 0.56 0.62 -1.18 c0.18 -0.08 0.22 -0.64 0.36 -0.74 c0.02 0 0.46 -0.82 0.44 -0.78 c0 -0.32 0.68 -1 0.68 -1.38 l0.1 -0.08 c0 -0.26 0.02 -0.38 -0.1 -0.38 l-0.42 0 c-0.04 -0.02 -0.08 -0.04 -0.1 -0.08 l-0.54 0 c-0.06 0.12 -0.36 0.12 -0.52 0.12 c-0.2 0 -0.2 0.02 -0.52 -0.3 c0 -0.4 0.2 -0.3 0.32 -0.42 l1.06 0 c0.04 0 0.12 -0.04 0.14 -0.04 c0.16 0 0.28 0.04 0.4 0.08 c0.16 0 1.74 -0.08 1.8 -0.08 c0.18 0 0.26 0.04 0.4 0.04 c0.06 0 0.22 -0.04 0.32 -0.04 c0.02 0.04 0.04 0.04 0.06 0.04 c0.04 0 0.08 -0.02 0.14 -0.02 c0.1 0 0.22 0.06 0.36 0.34 c0 0.46 -0.38 0.42 -0.58 0.42 c-0.1 0 -0.52 0 -0.68 -0.1 l0.04 -0.04 c0 -0.08 -0.16 -0.08 -0.16 -0.08 c-0.32 0 -0.58 0.26 -0.84 0.66 c-0.08 0 -0.3 1.24 -0.82 1.48 c0 0.48 -0.34 0.54 -0.34 0.82 c0 0.02 0.02 0.02 0.02 0.04 c0 0.12 -0.26 0.24 -0.26 0.36 c-0.04 0.44 -0.3 0.46 -0.48 0.92 c-0.08 -0.18 -0.04 0.42 -0.18 0.46 c0.2 -0.06 -0.26 0.12 -0.26 0.4 c0.02 0 0.02 0 0.02 0.02 c0 -0.02 0 -0.02 -0.02 -0.02 c-0.04 0 -0.36 0.72 -0.46 0.78 c0 0.1 -0.16 0.28 -0.16 0.38 c0.02 0 0.02 0.02 0.02 0.04 c0 0.08 -0.36 0.32 -0.36 0.6 c-0.32 0.64 -0.32 0.6 -0.32 0.88 l0 3.42 c0 0.04 -0.06 0.18 -0.06 0.18 c0 0.02 0.02 0.08 0.06 0.18 l0 2 c0 0.22 0.08 0.3 0.26 0.3 c0.28 0 0.46 -0.04 1.22 -0.04 c0.26 0 0.52 0.02 0.64 0.14 c0 0.48 -0.1 0.44 -0.16 0.48 l0 -0.16 c-0.08 0 -0.18 -0.02 -0.18 0.08 c0 0.02 0.02 0.06 0.08 0.1 c-0.08 0 -0.18 0.06 -0.22 0.06 c-0.14 0 -0.46 -0.06 -0.68 -0.08 c-0.2 0 -0.12 0.02 -0.16 0.06 c-0.22 0 -0.38 -0.06 -0.4 -0.06 l-0.36 0 l0.04 0.02 l-0.08 0 c-0.04 0 -0.42 0.04 -0.46 0.04 c-0.74 0 -0.6 0 -0.74 -0.04 c-0.02 0 -0.16 0.04 -0.22 0.04 l-2.74 0 c-0.16 0 -0.28 0.04 -0.46 0.04 c-0.06 0 -0.44 -0.14 -0.44 -0.26 c0 -0.02 0.02 -0.04 0.04 -0.06 z M115.14 19.78 c0 0.12 0.06 0.16 0.14 0.16 l0.04 -0.02 l0 0.02 c0 -0.08 -0.02 -0.16 -0.18 -0.16 z M115.80000000000001 19.88 c0 0.06 0.02 0.06 0.04 0.06 c0.04 0 0.1 -0.08 0.12 -0.14 l-0.04 -0.04 c0 0.02 -0.12 0.02 -0.12 0.12 z M116.08000000000001 19.78 c0 0.08 0.08 0.16 0.2 0.16 c0.16 0 0.12 0 0.16 -0.02 c-0.04 -0.24 -0.02 -0.26 -0.12 -0.34 c-0.1 0 -0.24 0.18 -0.24 0.2 z M116.58000000000001 19.8 l0.02 0.04 c0.06 -0.06 0.02 -0.06 0.04 -0.06 c-0.04 0 -0.06 0 -0.06 0.02 z M120.76 19.78 l0 0.06 c0.04 0 0.06 -0.06 0.06 -0.06 l-0.06 0 z M119.80000000000001 19.8 l-0.04 -0.02 z M117.5 19.72 c-0.02 0 -0.04 0.02 -0.06 0.04 l0.06 0.02 l0 -0.06 z M115.10000000000001 19.66 l0 0.06 l0.08 0 c-0.04 -0.06 -0.06 -0.06 -0.08 -0.06 z M120.82000000000001 19.68 c-0.02 0 -0.04 0.02 -0.04 0.04 s0.02 0.04 0.04 0.04 s0.02 -0.02 0.02 -0.04 s0 -0.04 -0.02 -0.04 z M121.52000000000001 19.58 l0 0.08 c0.02 -0.02 0.04 -0.04 0.04 -0.08 l-0.04 0 z M121.76 19.62 l0.04 0.04 c0.06 -0.08 0.08 -0.1 0.08 -0.2 c-0.06 0 -0.12 0.02 -0.12 0.16 z M116.82000000000001 12.940000000000001 c-0.02 0 -0.02 0.02 -0.02 0.04 s0 0.04 0.02 0.04 s0.02 -0.02 0.02 -0.04 s0 -0.04 -0.02 -0.04 z M120.78 11.3 l0 0 c-0.02 0 -0.02 0.04 -0.02 0.04 c0.02 0 0.02 -0.02 0.02 -0.04 z M121.56 9.5 c0.02 0.06 0.04 0.12 0.06 0.14 c0 -0.08 0 -0.14 -0.06 -0.14 z M114.48 8.74 c-0.02 0 -0.04 0.02 -0.04 0.04 c0 0 0.02 0.02 0.04 0.02 s0.02 -0.02 0.02 -0.02 c0 -0.02 0 -0.04 -0.02 -0.04 z M122.78 7.380000000000001 c-0.08 0.06 -0.06 0.14 -0.06 0.16 c0.02 0 0.1 -0.06 0.1 -0.08 c0 -0.06 -0.02 -0.04 -0.04 -0.08 z M123.06 6.48 c-0.02 0 -0.04 0.02 -0.04 0.02 c0 0.02 0.02 0.02 0.04 0.02 l0 -0.04 z M123.5 6.039999999999999 c-0.02 0 -0.04 0.02 -0.04 0.02 c0 0.02 0.02 0.02 0.04 0.02 c0 0 0.02 0 0.02 -0.02 z M111.10000000000001 5.52 c-0.02 0 -0.04 0.02 -0.04 0.02 c0 0.02 0.02 0.04 0.04 0.04 s0.02 -0.02 0.02 -0.04 c0 0 0 -0.02 -0.02 -0.02 z M111.68 5.52 l0.04 0.02 c0.04 0 0.04 -0.02 0.04 -0.06 c-0.04 0 -0.06 0 -0.08 0.04 z M123.62 5.48 c0 0.02 -0.02 0.02 -0.02 0.04 s0.02 0.02 0.06 0.02 l0 -0.06 l-0.04 0 z M121.82000000000001 5.460000000000001 l0 0.02 l0.06 0 c-0.04 -0.02 -0.06 -0.02 -0.06 -0.02 z M124.86000000000001 5.460000000000001 c-0.02 0 -0.04 0.02 -0.04 0.04 c0 0 0.02 0.02 0.04 0.02 l0 -0.06 z M125.64000000000001 5.32 c-0.14 0 -0.12 0.08 -0.12 0.2 c0.08 -0.02 0.16 -0.04 0.16 -0.16 z M110.9 5.32 c0 0.04 0.08 0.1 0.1 0.14 l0 -0.08 c0 -0.04 0 -0.1 -0.02 -0.12 c-0.06 0 -0.08 0.02 -0.08 0.06 z M122.28 5.460000000000001 c0 -0.02 -0.02 -0.02 -0.02 -0.02 c-0.02 0 -0.02 0 -0.02 0.02 s0 0.02 0.02 0.02 c0 0 0.02 0 0.02 -0.02 z M111.48 5.18 c-0.02 0.02 -0.02 0.04 -0.02 0.06 c0 0.1 0.2 0.06 0.22 0.12 c0 0 0.04 0 0.06 -0.06 c-0.04 -0.04 -0.18 -0.12 -0.26 -0.12 z M121.38000000000001 5.32 c-0.02 0 -0.04 0.02 -0.04 0.02 c0 0.02 0.02 0.02 0.04 0.02 c0 0 0.02 0 0.02 -0.02 z M116.76 5.300000000000001 l0.04 0.02 l0.06 -0.02 l-0.04 -0.04 c-0.02 0 -0.04 0.02 -0.06 0.04 z M122.66000000000001 5.02 c0 0.04 0.04 0.3 0.22 0.3 c0.02 0 0.06 -0.02 0.06 -0.14 c0 -0.02 -0.22 -0.16 -0.28 -0.16 z M123.56 5.300000000000001 c-0.02 0 -0.04 0 -0.04 0.02 l0.04 0 l0.02 0 c0 -0.02 0 -0.02 -0.02 -0.02 z M117.54 5.26 l0 0 s-0.06 0 -0.06 0.04 c0.06 0 0.06 0 0.06 -0.04 z M124.86000000000001 5.18 l0 0 c-0.02 0 -0.04 0 -0.04 0.04 s0.02 0.08 0.04 0.08 l0 -0.12 z M125.10000000000001 5.300000000000001 c0 -0.02 -0.02 -0.02 -0.02 -0.02 c-0.02 0 -0.02 0 -0.02 0.02 s0 0.02 0.02 0.02 c0 0 0.02 0 0.02 -0.02 z M125.18 5.26 c-0.02 0 -0.04 0.02 -0.04 0.04 c0 0 0.02 0.02 0.04 0.02 l0.02 -0.02 c0 -0.02 -0.02 -0.04 -0.02 -0.04 z M125.18 5.220000000000001 c0.02 0.04 0.04 0.1 0.06 0.1 s0.02 -0.06 0.02 -0.1 c0 -0.02 0 -0.04 -0.02 -0.04 c-0.06 0 -0.06 0 -0.06 0.04 z M111 5.140000000000001 c0 0 -0.02 0.02 -0.02 0.04 l0.04 0 c0 -0.02 -0.02 -0.04 -0.02 -0.04 z M125.56 5.140000000000001 l0.02 -0.04 z"/></g><g id="SvgjsG2247" featureKey="nameLeftFeature-0" transform="matrix(2.416107135121684,0,0,2.416107135121684,109.03355576344373,17.146311930579685)" fill="#000"><path d="M16.5 20 l-2.46 0 l-3.6 -6.32 l-3.6 6.32 l-2.46 0 l-3.98 -14.24 l2.8 0 l2.84 10.26 l3.18 -5.56 l2.46 0 l3.16 5.56 l2.86 -10.26 l2.78 0 z M34.14 20 l-3.16 0 l-5.06 -6.96 l-1.14 0 l0 6.96 l-2.6 0 l0 -14.24 l5.1 0 c0.96 0 1.86 0.38 2.56 1.08 s1.08 1.6 1.08 2.56 c0 1.42 -0.84 2.7 -2.08 3.3 z M24.779999999999998 10.44 l2.5 0 c0.56 0 1.04 -0.46 1.04 -1.04 s-0.48 -1.04 -1.04 -1.04 l-2.5 0 l0 2.08 z M38.82000000000001 20 l-2.68 0 l0 -14.24 l2.68 0 l0 14.24 z M48.14 20 l-2.68 0 l0 -11.6 l-3.5 0 l0 -2.64 l9.68 0 l0 2.64 l-3.5 0 l0 11.6 z M57.459999999999994 20 l-2.68 0 l0 -14.24 l2.68 0 l0 14.24 z M72.84 20 l-2.58 0 l-6.32 -9.34 l0 9.34 l-2.68 0 l0 -14.24 l2.6 0 l6.3 9.32 l0 -9.32 l2.68 0 l0 14.24 z M82.76 20.22 c-4.1 0 -7.44 -3.34 -7.44 -7.46 c0 -4.1 3.34 -7.44 7.44 -7.44 c1 0 1.98 0.2 2.88 0.58 s1.72 0.92 2.4 1.62 l0.38 0.38 l-1.98 1.74 l-0.34 -0.32 c-0.86 -0.88 -2.04 -1.34 -3.34 -1.34 c-2.64 0 -4.78 2.14 -4.78 4.78 c0 2.66 2.14 4.82 4.78 4.82 c1.34 0 2.56 -0.54 3.5 -1.5 l0 -2.96 l-3.9 0 l0 -2.66 l6.52 0 l0 6.56 l-0.1 0.12 c-1.44 1.94 -3.68 3.08 -6.02 3.08 z M98.83999999999999 20 l-2.66 0 l0 -14.24 l5.1 0 c0.98 0 1.9 0.38 2.6 1.08 c0.68 0.7 1.08 1.6 1.08 2.58 c0 2.02 -1.66 3.64 -3.68 3.64 l-2.44 0 l0 6.94 z M98.83999999999999 10.44 l2.44 0 c0.56 0 1 -0.46 1 -1.02 s-0.46 -1.04 -1 -1.04 l-2.44 0 l0 2.06 z M118.15999999999998 20 l-2.88 0 l-1.46 -3.84 l-4.72 0 l-1.48 3.84 l-2.86 0 l5.48 -14.24 l2.42 0 z M110.13999999999999 13.52 l2.64 0 l-1.32 -3.46 z"/></g><g id="SvgjsG2248" featureKey="inlineSymbolFeature-0" transform="matrix(0.03999997829862289,0,0,0.03999997829862289,398.9000005967879,28.90001051499538)" fill="#000"><defs xmlns="http://www.w3.org/2000/svg"/><title xmlns="http://www.w3.org/2000/svg">icon_luna</title><g xmlns="http://www.w3.org/2000/svg" data-name="Layer 2"><g data-name="Layer 1"><g><path class="cls-1" d="M175.76,27.5A449.32,449.32,0,0,0,27.5,52.5c175.68,61.28,301.74,228.42,301.74,425S203.18,841.21,27.5,902.5a449.32,449.32,0,0,0,148.26,25c248.53,0,450-201.47,450-450S424.29,27.5,175.76,27.5Z" style="fill: none; stroke: #111111; stroke-linejoin: round; stroke-width: 55px;"/></g></g></g></g><g id="SvgjsG2249" featureKey="nameRightFeature-0" transform="matrix(1,0,0,1,429,48)" fill="#000"><path d=""/></g>
			</g>
		</svg>
	