
        <svg xmlns="http://www.w3.org/2000/svg" xmlns:xlink="http://www.w3.org/1999/xlink" version="1.1" width="3211.219410743309" 
        height="1203.5282024153748" viewBox="0 0 3211.219410743309 1203.5282024153748">
			
			<g transform="scale(10.560970537165451) translate(10, 10)">
				<defs id="SvgjsDefs4068"></defs><g id="SvgjsG4069" featureKey="nameLeftFeature-0" transform="matrix(2.4489794647331258,0,0,2.4489794647331258,0,15.628574364664798)" fill="#ffffff"><path d="M7.84 5.720000000000001 l1.92 0 l-1.86 14.28 l-1.98 0 l-1 -7.16 l-0.94 7.16 l-1.98 0 l-2 -14.28 l1.92 0 l1.04 7.36 l0.96 -7.36 l1.92 0 l1.04 7.36 z M17.094 20.04 l-2.04 0 l-1.1 -3.02 l-0.44 0 l0 3.02 l-1.9 0 l0 -14.32 l2.98 0 c1.32 0 2.38 1.06 2.38 2.38 l0 6.54 c0 0.86 -0.44 1.6 -1.12 2.02 z M13.514000000000001 7.619999999999999 l0 7.5 l1.08 0 c0.26 0 0.48 -0.22 0.48 -0.48 l0 -6.54 c0 -0.26 -0.22 -0.48 -0.48 -0.48 l-1.08 0 z M20.848 5.68 l0 14.24 l-1.9 0 l0 -14.24 l1.9 0 z M29.622 5.68 l0 1.92 l-2.38 0 l0 12.42 l-1.92 0 l0 -12.42 l-2.62 0 l0 -1.92 l6.92 0 z M33.136 5.68 l0 14.24 l-1.9 0 l0 -14.24 l1.9 0 z M39.63 16.72 l0.08 -11.08 l1.92 0 l-0.12 14.44 l-2.98 0 l-1.62 -11.18 l0 11.18 l-1.92 0 l0 -14.44 l3.1 0 z M46.384 20.16 l-0.44 0 c-1.4 0 -2.52 -1.12 -2.52 -2.52 l0 -9.64 c0 -1.4 1.12 -2.54 2.52 -2.54 l0.44 0 c1.4 0 2.52 1.14 2.52 2.54 l0 1.02 l-1.96 0 l0 -1.02 c0 -0.34 -0.24 -0.58 -0.56 -0.58 l-0.44 0 c-0.3 0 -0.58 0.24 -0.58 0.58 l0 9.64 c0 0.3 0.28 0.58 0.58 0.58 l0.44 0 c0.32 0 0.56 -0.28 0.56 -0.58 l0 -5.2 l-1.12 0 l0 -1.94 l3.08 0 l0 7.14 c0 1.4 -1.12 2.52 -2.52 2.52 z"></path></g><g id="SvgjsG4070" featureKey="inlineSymbolFeature-0" transform="matrix(1.1751433962094917,0,0,1.1751433962094917,116.52920662643837,-12.22595575733212)" fill="#ffffff"><path xmlns="http://www.w3.org/2000/svg" d="M63.738,11.716c-1.346-0.751-3.007-0.715-4.748-0.038c0.704,0.035,1.369,0.21,1.969,0.545  c3.614,2.016,3.597,8.938-0.041,15.459c-0.668,1.198-1.337,2.395-2.004,3.593c-1.269,2.274-3.193,4.725-4.067,7.161  c-0.211,0.587-0.81,2.75-0.689,3.273c0.458,1.991,4.407-5.333,4.681-5.824c1.62-2.903,3.24-5.807,4.858-8.71  C67.334,20.653,67.352,13.731,63.738,11.716z"></path><path xmlns="http://www.w3.org/2000/svg" d="M76.843,90.36c-0.569,0-1.07-0.114-1.513-0.341c-1.473-0.758-1.814-2.49-2.144-4.168c-0.296-1.511-0.576-2.938-1.579-3.457  c-1.5-0.775-4.547-0.281-6.369,0.018l-0.198,0.032c-1.651,0.269-3.417,0.817-5.287,1.399c-2.51,0.779-5.103,1.586-7.479,1.683  l-0.966,0.039l0.076-0.962c0.043-0.545,0.293-1.114,0.559-1.72c0.545-1.239,0.72-1.847,0.321-2.161  c-0.835-0.66-3.362-0.4-7.505,0.772L44.35,81.61c-0.361,0.1-0.882,0.262-1.517,0.46c-5.588,1.74-11.76,3.45-14.293,1.695  c-0.686-0.477-1.075-1.183-1.125-2.045c-0.027-0.472,0.334-0.877,0.807-0.904c0.477-0.003,0.877,0.333,0.905,0.807  c0.019,0.338,0.135,0.558,0.39,0.733c2.059,1.427,9.867-1.007,12.807-1.923c0.658-0.205,1.197-0.373,1.57-0.477l0.398-0.111  c3.681-1.042,7.323-1.816,9.035-0.47c1.507,1.19,0.712,3,0.187,4.197c-0.019,0.042-0.035,0.082-0.054,0.122  c1.835-0.261,3.836-0.884,5.784-1.49c1.845-0.572,3.752-1.166,5.522-1.453l0.197-0.032c2.164-0.353,5.434-0.884,7.432,0.152  c1.737,0.898,2.13,2.892,2.475,4.65c0.262,1.333,0.51,2.594,1.245,2.973c0.645,0.331,1.842,0.108,3.466-0.633  c0.431-0.198,0.938-0.01,1.135,0.423s0.007,0.939-0.423,1.136C78.913,90.05,77.782,90.36,76.843,90.36z"></path><path xmlns="http://www.w3.org/2000/svg" d="M33.647,60.737c-2.915-0.959-5.222-2.576-6.443-4.288c-6.1,13.144-8.838,23.231-6.269,24.664  c2.661,1.484,10.229-6.766,18.546-19.611C37.76,61.658,35.726,61.42,33.647,60.737z"></path><path xmlns="http://www.w3.org/2000/svg" d="M60.113,10.875c-3.425-1.91-9.332,2.159-13.195,9.086L31.771,47.119l0.053,0.029c-1.549,2.932-2.961,5.777-4.244,8.508  c1.598,1.378,3.888,2.653,6.576,3.537c2.167,0.713,4.274,1.065,6.114,1.093c1.272-1.998,2.558-4.096,3.844-6.282l0.052,0.029  l15.149-27.158C63.179,19.948,63.535,12.785,60.113,10.875z"></path></g><g id="SvgjsG4071" featureKey="nameRightFeature-0" transform="matrix(2.5139663665989174,0,0,2.5139663665989174,218.79720702636837,14.670392189887203)" fill="#ffffff"><path d="M6.754 17 l0 2.98 l-1.9 0 l0 -14.26 l2.96 0 c1.32 0 2.38 1.08 2.38 2.4 l0 6.5 c0 1.32 -1.06 2.38 -2.38 2.38 l-1.06 0 z M6.754 7.619999999999999 l0 7.48 l1.06 0 c0.28 0 0.48 -0.2 0.48 -0.48 l0 -6.5 c0 -0.28 -0.2 -0.5 -0.48 -0.5 l-1.06 0 z M16.628 20 l-0.72 -4.94 l-2.02 0 l-0.66 4.94 l-1.92 0 l2.16 -14.3 l2.58 0 l2.5 14.3 l-1.92 0 z M14.148 13.16 l1.48 0 l-0.76 -5.2 z M22.902 20.02 l-2.5 0 l0 -14.26 l2.5 0 c1.7 0 3.06 1.38 3.06 3.08 l0 8.1 c0 0.82 -0.32 1.6 -0.9 2.18 s-1.34 0.9 -2.16 0.9 z M22.302 7.68 l0 10.42 l0.6 0 c0.3 0 0.6 -0.12 0.82 -0.34 s0.34 -0.5 0.34 -0.82 l0 -8.1 c0 -0.64 -0.52 -1.16 -1.16 -1.16 l-0.6 0 z"></path></g>
			</g>
		</svg>
	