
        <svg xmlns="http://www.w3.org/2000/svg" xmlns:xlink="http://www.w3.org/1999/xlink" version="1.1" width="3483.6026463807384" 
        height="2586.216815301545" viewBox="0 0 3483.6026463807384 2586.216815301545">
			
			<g transform="scale(24.18013231903691) translate(10, 10)">
				<defs id="SvgjsDefs4829"><linearGradient id="SvgjsLinearGradient4836"><stop id="SvgjsStop4837" stop-color="#2d388a" offset="0"></stop><stop id="SvgjsStop4838" stop-color="#00aeef" offset="1"></stop></linearGradient></defs><g id="SvgjsG4830" featureKey="5TMTKC-0" transform="matrix(0.9077613205065835,0,0,0.9077613205065835,0,0)" fill="url(#SvgjsLinearGradient4836)"><g xmlns="http://www.w3.org/2000/svg"><g><path d="M77.137,0C65.924,0,56.677,8.947,55.31,20.512c-2.062-0.526-4.209-0.813-6.421-0.813    c-15.198,0-27.518,13.152-27.518,29.374c0,5.595,1.466,10.824,4.009,15.274L4.794,87.79L0,95.792l7.622-4.567L31.22,71.588    c4.78,4.28,10.941,6.86,17.669,6.86c15.193,0,27.513-13.149,27.513-29.375c0-0.722-0.032-1.435-0.081-2.143    c0.271,0.01,0.542,0.022,0.816,0.022c12.152,0,22.008-10.511,22.008-23.478C99.145,10.51,89.29,0,77.137,0z M41.867,38.417    l13.28-14.229c0.182,6.482,2.823,12.303,6.968,16.436C57.42,45.026,50.704,50.914,48.379,53.24    C46.927,54.692,38.368,45.69,41.867,38.417z M8.077,88.906l21.339-19.383l0.931,1.304L8.077,88.906z M50.659,73.632    c-13.391,0-24.244-11.52-24.244-25.73c0-7.562,3.075-14.362,7.971-19.07c-3.788,4.472-6.097,10.278-6.15,16.636    c0.092,1.435,1.642,26.049,25.34,26.049c3.943,0,7.675-0.917,11.002-2.554C60.638,71.902,55.84,73.632,50.659,73.632z     M56.631,56.026c-1.013,1.011-5.244,1.031-5.948-0.726l13.848-12.587c1.259,0.94,2.611,1.749,4.044,2.395    C64.174,49.167,58.741,53.918,56.631,56.026z M78.129,41.924c-9.926,0-17.974-8.54-17.974-19.075    c0-6.933,3.498-12.984,8.712-16.323c-2.464,3.319-3.943,7.439-3.943,11.921c0,10.94,8.704,19.809,19.441,19.809    c1.828,0,3.589-0.275,5.267-0.755C86.513,40.261,82.504,41.924,78.129,41.924z M28.23,45.69c0-0.075,0.005-0.148,0.006-0.222    C28.227,45.334,28.23,45.384,28.23,45.69z"></path></g></g></g><g id="SvgjsG4831" featureKey="nameLeftFeature-0" transform="matrix(1,0,0,1,110,39.00000047683716)" fill="#000000"><path d=""></path></g><g id="SvgjsG4832" featureKey="nameRightFeature-0" transform="matrix(0.12,0,0,0.12,121.96880002975465,42.40000005722046)" fill="#ffffff"><path d="M11.36 12.36 l2.48 -7.36 l3.66 0 l-5 15 l-2.26 0 l-1.4 -4.16 l-1.34 4.16 l-2.26 0 l-4.98 -15 l3.64 0 l2.5 7.36 l1.36 -4.1 l2.24 0 z M9.14 8.76 l-1 0 l-2.54 7.54 l-3.6 -10.8 l-1.06 0 l4.66 14 z M3.56 5.5 l-1.06 0 l3.1 9.26 l0.5 -1.56 z M9.64 8.76 l-3.54 10.74 l1.06 0 l2.48 -7.56 l2.5 7.56 l4.66 -14 l-1.06 0 l-3.6 10.8 z M14.2 5.5 l-2.54 7.7 l0.48 1.56 l3.12 -9.26 l-1.06 0 z M10.6 19.5 l1.06 0 l-2.02 -6 l-0.5 1.6 z"></path></g>
			</g>
		</svg>
	